<svg width="24" height="24" viewBox="0 0 24 24" fill="none" xmlns="http://www.w3.org/2000/svg">
<path d="M4 21.001L7.00071 18" stroke="#1C1C1E" stroke-width="1.5" stroke-linecap="round" stroke-linejoin="round"/>
<path d="M15 10.002L14 11.002" stroke="#1C1C1E" stroke-width="1.5" stroke-linecap="round" stroke-linejoin="round"/>
<path d="M17.9997 3.00195L14.9997 6.00195C14.4545 6.5472 14.1819 6.81982 14.0361 7.11392C13.7588 7.67347 13.7588 8.33042 14.0361 8.88998C14.1819 9.18407 14.4545 9.4567 14.9997 10.002C15.545 10.5472 15.8176 10.8199 16.1117 10.9656C16.6713 11.2429 17.3282 11.2429 17.8878 10.9656C18.1819 10.8199 18.4545 10.5472 18.9997 10.002L21.9997 7.00195" stroke="#1C1C1E" stroke-width="1.5" stroke-linecap="round" stroke-linejoin="round"/>
<path d="M20 5L17 8" stroke="#141B34" stroke-width="1.5" stroke-linecap="round" stroke-linejoin="round"/>
<path d="M20 21L12 13M12 13L2 3C2 6.84174 3.52612 10.5261 6.24264 13.2426L9 16L12 13Z" stroke="#141B34" stroke-width="1.5" stroke-linecap="round" stroke-linejoin="round"/>
</svg>
