<svg width="59" height="58" viewBox="0 0 59 58" fill="none" xmlns="http://www.w3.org/2000/svg">
<rect x="0.75" y="0.25" width="57.5" height="57.5" rx="28.75" fill="#F9F9FA"/>
<rect x="0.75" y="0.25" width="57.5" height="57.5" rx="28.75" stroke="white" stroke-width="0.5"/>
<path d="M35.3917 38.66C34.2484 39.7683 33 39.5933 31.7984 39.0683C30.5267 38.5317 29.36 38.5083 28.0184 39.0683C26.3384 39.7917 25.4517 39.5817 24.4484 38.66C18.755 32.7917 19.595 23.855 26.0584 23.5283C27.6334 23.61 28.73 24.3917 29.6517 24.4617C31.0284 24.1817 32.3467 23.3767 33.8167 23.4817C35.5784 23.6217 36.9084 24.3217 37.7834 25.5817C34.1434 27.7633 35.0067 32.5583 38.3434 33.9C37.6784 35.65 36.815 37.3883 35.38 38.6717L35.3917 38.66ZM29.535 23.4583C29.36 20.8567 31.4717 18.71 33.8984 18.5C34.2367 21.51 31.1684 23.75 29.535 23.4583Z" fill="#090909"/>
</svg>
