<svg width="20" height="20" viewBox="0 0 20 20" fill="none" xmlns="http://www.w3.org/2000/svg">
<g clip-path="url(#clip0_305_4840)">
<path d="M17.5 15.8339V5.83398H2.5V15.8339C2.5 16.2759 2.67559 16.6999 2.98816 17.0124C3.30072 17.325 3.72464 17.5006 4.16667 17.5006H15.8333C16.2754 17.5006 16.6993 17.325 17.0118 17.0124C17.3244 16.6999 17.5 16.2759 17.5 15.8339Z" fill="white" stroke="white" stroke-linecap="round" stroke-linejoin="round"/>
<path d="M2.58552 4.74342C2.52888 4.91336 2.5 5.09133 2.5 5.27047V5.83333H17.5V5.27047C17.5 5.09133 17.4711 4.91336 17.4145 4.74342L17.0466 3.63962C16.936 3.30776 16.7237 3.01913 16.44 2.81459C16.1562 2.61006 15.8152 2.5 15.4654 2.5H4.5346C4.1848 2.5 3.84386 2.61006 3.56008 2.81459C3.27631 3.01913 3.06408 3.30776 2.95346 3.63962L2.58552 4.74342Z" stroke="white" stroke-width="1.5" stroke-linecap="round" stroke-linejoin="round"/>
<path d="M7.0835 8.75C7.0835 9.52355 7.39079 10.2654 7.93777 10.8124C8.48475 11.3594 9.22661 11.6667 10.0002 11.6667C10.7737 11.6667 11.5156 11.3594 12.0626 10.8124C12.6095 10.2654 12.9168 9.52355 12.9168 8.75" stroke="#3FBD6F" stroke-width="1.5" stroke-linecap="round" stroke-linejoin="round"/>
</g>
<defs>
<clipPath id="clip0_305_4840">
<rect width="20" height="20" fill="white"/>
</clipPath>
</defs>
</svg>
