<svg width="96" height="117" viewBox="0 0 96 117" fill="none" xmlns="http://www.w3.org/2000/svg">
<path d="M80.4332 107.328L79.1013 110.969C74.1271 114.012 59.7837 116.219 42.8632 116.219C25.9427 116.219 11.6012 114.017 6.62601 110.969L5.29321 107.328C8.33696 103.731 24.0003 100.996 42.8632 100.996C61.7262 100.996 77.3885 103.736 80.4332 107.328Z" fill="url(#paint0_linear_125_5627)"/>
<path d="M84.9186 102.526L83.6365 106.627C78.5848 110.93 62.2436 114.079 42.8632 114.079C23.4829 114.079 7.1407 110.929 2.08992 106.627L0.807861 102.532C3.41903 97.468 21.2526 93.5508 42.8669 93.5508C64.4812 93.5508 82.3065 97.4643 84.9186 102.526Z" fill="url(#paint1_linear_125_5627)"/>
<path d="M85.2487 101.573C85.2487 102.772 84.2627 103.92 82.4623 104.978C76.3628 108.56 60.9366 111.108 42.8632 111.108C24.7898 111.108 9.35796 108.564 3.26308 104.981C1.46451 103.924 0.478516 102.776 0.478516 101.576C0.478516 96.3126 19.4549 92.0449 42.8632 92.0449C66.2714 92.0449 85.2487 96.3089 85.2487 101.573Z" fill="url(#paint2_linear_125_5627)"/>
<path d="M83.2732 103.194C83.2732 103.806 82.9965 104.402 82.4624 104.979C76.363 108.561 60.9367 111.109 42.8633 111.109C24.7899 111.109 9.35807 108.565 3.26319 104.982C2.73192 104.405 2.45337 103.808 2.45337 103.198C2.45337 98.2752 20.5452 94.2852 42.8633 94.2852C65.1813 94.2852 83.2732 98.2715 83.2732 103.194Z" fill="url(#paint3_linear_125_5627)"/>
<path opacity="0.15" d="M83.2732 103.194C83.2732 103.805 82.9965 104.402 82.4624 104.979C81.4313 105.585 80.1317 106.162 78.5978 106.702C71.0687 109.35 57.8782 111.105 42.8633 111.105C27.8484 111.105 14.6588 109.352 7.12875 106.701C5.59396 106.161 4.2953 105.584 3.26319 104.978C2.73192 104.401 2.45337 103.804 2.45337 103.194C2.45337 98.2713 20.5452 94.2812 42.8633 94.2812C65.1813 94.2812 83.2732 98.2713 83.2732 103.194Z" fill="#52BE7B"/>
<path opacity="0.25" d="M78.6909 105.997C78.6909 106.235 78.6599 106.472 78.5986 106.703C71.0695 109.351 57.879 111.106 42.8641 111.106C27.8492 111.106 14.6596 109.353 7.12959 106.702C7.06831 106.472 7.03731 106.235 7.03735 105.997C7.03735 100.619 23.0779 96.2598 42.865 96.2598C62.6522 96.2598 78.6909 100.619 78.6909 105.997Z" fill="#52BE7B"/>
<path opacity="0.2" d="M78.5969 18.171C79.1691 16.9096 78.6104 15.4233 77.3491 14.8511C76.0877 14.2789 74.6013 14.8376 74.0292 16.0989C73.457 17.3603 74.0157 18.8466 75.277 19.4188C76.5384 19.991 78.0247 19.4323 78.5969 18.171Z" fill="#52BE7B"/>
<path d="M73.3801 16.1465L78.9961 18.694L78.004 20.8813L72.3879 18.3338L73.3801 16.1465Z" fill="#A9E3BF"/>
<path d="M92.7984 63.5609C92.6988 63.7813 92.5964 64.0008 92.4921 64.2176L92.4276 64.3504C91.3106 65.6601 76.9321 60.5974 59.9416 52.8893C42.9325 45.173 29.6471 37.6844 29.9219 35.9891C29.9394 35.9467 29.9579 35.9034 29.9773 35.86C30.0713 35.638 30.1688 35.4164 30.2696 35.195C37.9602 18.2441 58.1909 10.8524 75.4582 18.685C92.7255 26.5175 100.489 46.61 92.7984 63.5609Z" fill="url(#paint4_linear_125_5627)"/>
<path d="M92.4921 64.2166C92.4878 64.2388 92.481 64.2605 92.4719 64.2812C92.4604 64.3059 92.4455 64.3289 92.4276 64.3494C91.3106 65.6592 76.9321 60.5964 59.9416 52.8884C42.9325 45.172 29.6471 37.6834 29.9219 35.9882C29.9256 35.963 29.9327 35.9385 29.9431 35.9153C29.9522 35.8952 29.9636 35.8763 29.9773 35.859C31.0177 34.506 45.4284 39.5752 62.4734 47.3072C79.5184 55.0393 92.8159 62.5398 92.4921 64.2166Z" fill="url(#paint5_linear_125_5627)"/>
<path opacity="0.2" d="M92.4921 64.2166C92.4878 64.2388 92.481 64.2605 92.4719 64.2812C92.4604 64.3059 92.4455 64.3289 92.4276 64.3494C91.3106 65.6592 76.9321 60.5964 59.9416 52.8884C42.9325 45.172 29.6471 37.6834 29.9219 35.9882C29.9256 35.963 29.9327 35.9385 29.9431 35.9153C29.9522 35.8952 29.9636 35.8763 29.9773 35.859C31.0177 34.506 45.4284 39.5752 62.4734 47.3072C79.5184 55.0393 92.8159 62.5398 92.4921 64.2166Z" fill="#52BE7B"/>
<g opacity="0.5">
<path d="M87.7929 48.726C87.6127 48.701 87.4294 48.7118 87.2533 48.7578C87.0773 48.8038 86.9121 48.8841 86.7672 48.994C86.6222 49.1039 86.5004 49.2413 86.4086 49.3984C86.3168 49.5555 86.2569 49.7291 86.2323 49.9093C86.153 50.4867 86.0543 51.0586 85.9371 51.6083C85.8994 51.7861 85.8971 51.9695 85.9302 52.1482C85.9634 52.3268 86.0314 52.4972 86.1304 52.6496C86.2294 52.8019 86.3575 52.9333 86.5073 53.0362C86.657 53.1391 86.8256 53.2114 87.0034 53.2492C87.1811 53.2869 87.3646 53.2892 87.5432 53.2561C87.7219 53.2229 87.8923 53.1549 88.0446 53.0559C88.197 52.9569 88.3284 52.8288 88.4312 52.679C88.5341 52.5293 88.6065 52.3607 88.6442 52.1829C88.777 51.5544 88.8869 50.9213 88.9735 50.2847C89.0234 49.9215 88.9271 49.5533 88.7058 49.2611C88.4844 48.9688 88.1561 48.7763 87.7929 48.726Z" fill="url(#paint6_linear_125_5627)"/>
<path d="M87.8214 46.0757H87.8915C88.2579 46.0573 88.6021 45.8942 88.8482 45.6221C89.0944 45.35 89.2223 44.9913 89.204 44.6249C88.8351 37.3106 86.1086 30.4456 81.7146 25.7914C81.5899 25.6593 81.4403 25.553 81.2746 25.4786C81.1088 25.4043 80.93 25.3633 80.7484 25.358C80.5668 25.3527 80.3859 25.3833 80.2161 25.4479C80.0463 25.5126 79.8909 25.61 79.7587 25.7347C79.6266 25.8594 79.5203 26.0089 79.4459 26.1747C79.3715 26.3405 79.3306 26.5193 79.3253 26.7009C79.32 26.8825 79.3506 27.0634 79.4152 27.2332C79.4798 27.403 79.5773 27.5584 79.702 27.6905C83.6506 31.8734 86.1068 38.0965 86.4397 44.7632C86.4579 45.1174 86.6115 45.451 86.8686 45.6953C87.1257 45.9395 87.4668 46.0757 87.8214 46.0757Z" fill="url(#paint7_linear_125_5627)"/>
</g>
<path d="M34.6921 33.1636C41.7527 23.2022 57.5396 16.0872 69.3447 19.0101C69.3447 19.0101 51.9124 19.0249 40.5075 34.8109L34.6921 33.1636Z" fill="url(#paint8_linear_125_5627)"/>
<path d="M32.5192 49.3558C29.2993 48.1033 25.9705 46.8083 23.2616 44.9129C19.9328 42.583 18.0457 40.0014 17.65 37.2408C17.1805 33.96 18.9579 31.168 20.0583 29.7947C23.8796 25.0298 25.9834 16.0646 22.9692 11.6466C21.166 9.00495 20.4687 6.46849 21.0489 4.6902C21.4732 3.39338 22.5883 2.41846 24.3629 1.79219C24.5935 1.71073 24.7824 1.54097 24.8879 1.32025C24.9934 1.09954 25.007 0.845948 24.9255 0.615269C24.844 0.384591 24.6743 0.195721 24.4536 0.0902068C24.2329 -0.0153072 23.9793 -0.0288212 23.7486 0.0526379C21.4058 0.882751 19.9079 2.2469 19.2955 4.1165C18.5226 6.47771 19.2863 9.52146 21.4455 12.687C22.568 14.3324 22.8631 17.1142 22.2562 20.3249C21.6678 23.424 20.3101 26.5296 18.624 28.6408C16.4002 31.4134 15.4078 34.5604 15.8284 37.5018C16.2988 40.7881 18.4451 43.7895 22.2073 46.4246C25.0971 48.4482 28.5328 49.7838 31.8542 51.076C38.2341 53.5571 44.2598 55.9008 46.9014 62.7299C46.9932 62.9528 47.1687 63.1309 47.3903 63.226C47.6118 63.3211 47.8618 63.3257 48.0867 63.2387C48.3116 63.1518 48.4935 62.9803 48.5935 62.7608C48.6934 62.5414 48.7035 62.2916 48.6215 62.0648C45.6829 54.4767 38.9913 51.8729 32.5192 49.3558Z" fill="url(#paint9_linear_125_5627)"/>
<path d="M26.1438 52.6946C22.721 51.8516 19.1828 50.98 16.1428 49.3059C12.3851 47.2371 10.4943 44.5097 10.3615 40.9568C10.2305 37.4427 11.8714 33.6777 13.1175 31.1513C14.6965 27.9508 15.1282 24.6027 14.4374 20.9133C13.8793 17.9332 12.6028 14.7723 10.4215 10.9648C10.2972 10.758 10.0968 10.6081 9.86328 10.5473C9.62978 10.4865 9.38174 10.5197 9.17238 10.6396C8.96301 10.7596 8.80899 10.9568 8.74333 11.189C8.67768 11.4212 8.70563 11.6698 8.82118 11.8816C13.2485 19.6026 14.0361 25.121 11.4646 30.3351C8.38584 36.583 5.42326 45.5105 15.2536 50.9228C18.5058 52.7131 22.1648 53.6142 25.7029 54.4858C32.7866 56.2291 39.4782 57.8791 41.9777 66.457C42.0462 66.6918 42.2052 66.8898 42.4197 67.0074C42.6342 67.1251 42.8866 67.1527 43.1215 67.0842C43.3563 67.0157 43.5543 66.8567 43.6719 66.6422C43.7896 66.4277 43.8172 66.1753 43.7487 65.9405C40.9512 56.3425 33.4239 54.4877 26.1438 52.6946Z" fill="url(#paint10_linear_125_5627)"/>
<path d="M56.1938 56.9394C56.1579 56.7844 55.2918 53.1079 52.8448 49.318C49.5511 44.2174 44.9652 41.396 39.5814 41.1589C33.8158 40.9053 29.9401 39.4692 28.0613 36.8903C26.4334 34.6545 26.2083 31.5038 27.3732 27.2582C27.4379 27.0223 27.4063 26.7703 27.2852 26.5577C27.1641 26.3451 26.9635 26.1893 26.7276 26.1246C26.4917 26.0599 26.2397 26.0916 26.0271 26.2127C25.8145 26.3338 25.6587 26.5343 25.594 26.7703C24.2705 31.5923 24.5896 35.2559 26.5699 37.9768C27.6527 39.4627 29.2447 40.6369 31.296 41.4651C33.4654 42.3404 36.2259 42.8579 39.5003 43.0018C44.3122 43.213 48.2709 45.66 51.2657 50.2736C53.5522 53.796 54.3879 57.3194 54.3962 57.3535C54.4234 57.4715 54.4736 57.5831 54.5439 57.6817C54.6141 57.7803 54.7032 57.8642 54.8059 57.9284C54.9086 57.9927 55.0229 58.036 55.1424 58.0561C55.2618 58.0761 55.384 58.0725 55.5021 58.0453C55.6201 58.0181 55.7316 57.9679 55.8303 57.8976C55.9289 57.8273 56.0128 57.7383 56.077 57.6356C56.1412 57.5329 56.1846 57.4186 56.2047 57.2991C56.2247 57.1796 56.221 57.0574 56.1938 56.9394Z" fill="url(#paint11_linear_125_5627)"/>
<path d="M36.226 73.9088L33.9856 68.7437L35.4401 60.6547L44.6166 59.0664L51.8487 63.8276L54.339 71.1907C54.339 71.1907 53.0819 79.2096 53.0109 79.133C52.9398 79.0564 36.226 73.9088 36.226 73.9088Z" fill="url(#paint12_linear_125_5627)"/>
<path d="M55.0281 80.5629L53.8373 80.8101L43.9092 50.7416L43.0126 48.0197C42.9548 47.8444 42.9673 47.6534 43.0475 47.487C43.1277 47.3207 43.2693 47.1919 43.4425 47.1278L43.7791 47.0033C43.8698 46.9697 43.9664 46.955 44.0629 46.9599C44.1595 46.9648 44.2541 46.9894 44.3409 47.032C44.4276 47.0746 44.5049 47.1344 44.5678 47.2078C44.6307 47.2812 44.6781 47.3667 44.707 47.4589L45.5491 50.1596L55.0281 80.5629Z" fill="url(#paint13_linear_125_5627)"/>
<path d="M56.421 80.9552L55.2071 81.0317L49.615 49.7789L49.1261 47.0451C49.0936 46.8629 49.1331 46.6753 49.2364 46.5217C49.3396 46.3682 49.4985 46.2608 49.6795 46.2223L50.0309 46.1467C50.1254 46.1264 50.2231 46.1256 50.3179 46.1443C50.4127 46.1629 50.5028 46.2006 50.5826 46.2551C50.6623 46.3097 50.7302 46.3798 50.7821 46.4614C50.8339 46.543 50.8686 46.6342 50.8841 46.7296L51.3204 49.4266L56.421 80.9552Z" fill="url(#paint14_linear_125_5627)"/>
<path d="M38.3041 75.23C38.0126 74.4266 38.3096 73.3687 38.0827 73.0643C37.8558 72.7599 37.3071 71.7103 37.8337 70.6708C38.3604 69.6313 39.8297 69.6175 40.8267 69.6452C41.8238 69.6728 42.7305 69.16 43.3383 68.3981C43.9461 67.6363 46.7777 67.6704 47.3127 70.4734C47.8476 73.2764 44.4248 76.0481 44.4248 76.0481L38.3041 75.23Z" fill="url(#paint15_linear_125_5627)"/>
<path d="M42.4852 75.0444C40.7963 74.6137 39.5087 73.6729 39.6111 72.9931C39.7283 72.223 39.5281 71.8088 39.5419 71.3901C39.5613 70.8035 40.4292 70.4493 41.5397 70.6255C42.6503 70.8016 43.306 69.4181 44.542 69.5749C45.7779 69.7317 45.9901 71.7212 45.9901 71.7212C45.9901 71.7212 44.3833 74.7539 42.4852 75.0444Z" fill="url(#paint16_linear_125_5627)"/>
<path d="M44.6423 73.9117C42.7459 72.5134 42.603 70.8172 43.5493 70.3376C44.8406 69.6855 46.6318 69.8063 47.1677 69.2123C47.7035 68.6183 47.8327 67.0817 49.1968 67.0245C50.561 66.9673 51.1338 69.216 50.5804 71.3143C50.0269 73.4127 44.6423 73.9117 44.6423 73.9117Z" fill="url(#paint17_linear_125_5627)"/>
<path d="M44.813 73.2404C44.1222 71.7065 44.2771 71.0019 45.8848 70.7196C47.4925 70.4374 47.914 70.0288 48.2829 69.5353C48.6518 69.0419 50.479 67.9673 50.9199 70.5933C51.3608 73.2192 44.813 73.2404 44.813 73.2404Z" fill="url(#paint18_linear_125_5627)"/>
<path d="M51.2676 75.0358L56.7168 62.5361L66.5057 56.9033L68.3126 57.2953C68.3126 57.2953 71.8544 54.864 72.4004 54.4775C73.2545 53.8734 75.7209 53.7102 76.325 56.8129L73.76 56.7152C73.76 56.7152 73.6447 57.4152 74.4572 57.4752C75.2698 57.5351 77.2243 57.6864 77.2243 57.6864L81.3435 64.3402L79.5597 69.5303L65.6996 83.1985L51.2676 75.0358Z" fill="url(#paint19_linear_125_5627)"/>
<path d="M75.5106 73.4097C75.5106 73.4097 76.3611 69.1992 71.8831 67.1719L72.5923 73.3212L75.5106 73.4097Z" fill="url(#paint20_linear_125_5627)"/>
<path d="M64.3936 73.2096L71.8572 67.1719C71.8572 67.1719 73.6844 69.1328 72.5951 73.3212L64.3936 73.2096Z" fill="url(#paint21_linear_125_5627)"/>
<path d="M69.4611 70.7166C70.0855 70.3265 70.353 70.0046 70.4507 70.4464C70.5485 70.8882 70.3852 72.304 70.1971 72.5982C70.0089 72.8924 72.1525 72.173 72.1525 72.1158C72.1525 72.0586 72.3738 69.0306 71.2522 68.7031C71.2522 68.7031 69.3374 70.1272 69.0515 70.356C68.7656 70.5847 69.0026 71.0025 69.4611 70.7166Z" fill="url(#paint22_linear_125_5627)"/>
<path d="M56.7244 72.2713C57.2529 69.6205 58.9251 66.7908 61.8803 66.954C64.8355 67.1173 65.5909 69.7211 65.2828 72.3479L59.3918 74.9526L56.7244 72.2713Z" fill="url(#paint23_linear_125_5627)"/>
<path d="M58.1447 73.5215C58.1069 72.2607 59.0329 70.4243 61.0344 70.4879C63.0359 70.5516 63.2932 72.7754 63.2932 72.7754C63.2932 72.7754 59.6684 76.1908 58.1447 73.5215Z" fill="url(#paint24_linear_125_5627)"/>
<path d="M59.4359 74.8552C57.7083 69.7334 54.6775 67.6139 52.0303 68.2309C49.9947 68.7059 49.1637 70.9878 49.8084 73.9126C49.8084 73.9126 54.1647 76.58 54.2633 76.5468L59.4359 74.8552Z" fill="url(#paint25_linear_125_5627)"/>
<path d="M51.9493 74.4153C51.4882 71.9194 54.1095 70.7471 56.2364 72.4091C58.1438 73.8997 55.8297 77.0375 55.8297 77.0375L51.9493 74.4153Z" fill="url(#paint26_linear_125_5627)"/>
<path d="M70.3798 73.8326C68.9225 72.2065 66.0254 70.6302 62.5186 72.1041C59.0118 73.578 57.3848 74.8998 53.9795 74.1333C53.9795 74.2181 54.6399 79.6563 54.6399 79.6563L67.7197 79.233L70.3798 73.8326Z" fill="url(#paint27_linear_125_5627)"/>
<path d="M55.0326 75.1367C54.4709 75.1367 53.8824 75.1072 53.2626 75.0444C53.2383 75.0421 53.2159 75.0302 53.2003 75.0113C53.1847 74.9925 53.1773 74.9682 53.1796 74.9439C53.1819 74.9196 53.1939 74.8972 53.2127 74.8816C53.2316 74.866 53.2558 74.8586 53.2801 74.8609C55.8129 75.1035 57.8209 74.8498 59.601 74.0612C62.4151 72.8142 65.9182 71.2628 69.3945 73.4995C69.4054 73.5057 69.4149 73.5141 69.4224 73.5241C69.4299 73.5341 69.4354 73.5455 69.4384 73.5576C69.4414 73.5698 69.4418 73.5825 69.4398 73.5948C69.4377 73.6072 69.4331 73.619 69.4264 73.6295C69.4196 73.64 69.4108 73.6491 69.4004 73.6561C69.39 73.6631 69.3783 73.6679 69.366 73.6702C69.3537 73.6726 69.341 73.6724 69.3288 73.6697C69.3166 73.667 69.305 73.6618 69.2949 73.6545C65.9016 71.4722 62.4492 73.0014 59.6757 74.23C58.3032 74.8424 56.7989 75.1367 55.0326 75.1367Z" fill="#27DD6C"/>
<path d="M56.8174 75.7994C56.2427 75.7994 55.6073 75.7551 54.8417 75.6804C54.8296 75.6792 54.8178 75.6757 54.8071 75.67C54.7963 75.6643 54.7868 75.6566 54.779 75.6472C54.7713 75.6378 54.7655 75.627 54.7619 75.6154C54.7583 75.6037 54.7571 75.5915 54.7582 75.5794C54.7594 75.5673 54.7629 75.5555 54.7686 75.5448C54.7743 75.534 54.7821 75.5245 54.7914 75.5167C54.8008 75.509 54.8116 75.5032 54.8233 75.4996C54.8349 75.496 54.8471 75.4948 54.8592 75.4959C57.2038 75.7237 58.3088 75.6684 60.2301 74.8946C60.3933 74.8291 60.5575 74.7608 60.7235 74.6926C62.4511 73.9787 64.4129 73.1707 66.6616 74.1917C66.6838 74.2019 66.7012 74.2205 66.7097 74.2434C66.7183 74.2663 66.7174 74.2917 66.7072 74.3139C66.6971 74.3362 66.6785 74.3535 66.6556 74.3621C66.6327 74.3706 66.6073 74.3697 66.585 74.3596C64.4064 73.3718 62.57 74.1299 60.7936 74.8632C60.6276 74.9324 60.4625 74.9997 60.2983 75.0661C58.972 75.5983 58.0284 75.7994 56.8174 75.7994Z" fill="#27DD6C"/>
<path d="M57.393 76.5104C57.0611 76.5097 56.7296 76.4876 56.4006 76.444C56.3761 76.4409 56.3539 76.4281 56.3389 76.4085C56.3239 76.389 56.3172 76.3643 56.3204 76.3398C56.3235 76.3153 56.3363 76.2931 56.3559 76.2781C56.3754 76.263 56.4001 76.2564 56.4246 76.2596C57.8081 76.4394 59.057 76.243 60.1444 75.6757C61.5279 74.9563 63.3892 74.5514 64.1022 75.7744C64.1089 75.7849 64.1134 75.7966 64.1154 75.8089C64.1174 75.8212 64.1169 75.8338 64.114 75.8458C64.111 75.8579 64.1056 75.8693 64.0982 75.8792C64.0907 75.8892 64.0813 75.8975 64.0705 75.9037C64.0598 75.91 64.0478 75.914 64.0355 75.9155C64.0231 75.917 64.0106 75.9159 63.9987 75.9125C63.9867 75.909 63.9756 75.9032 63.966 75.8953C63.9563 75.8874 63.9484 75.8777 63.9426 75.8666C63.25 74.6787 61.2826 75.2902 60.2293 75.839C59.3526 76.2902 58.379 76.5207 57.393 76.5104ZM62.0278 77.3156C62.0157 77.3157 62.0037 77.3134 61.9924 77.3088C61.9812 77.3042 61.971 77.2974 61.9624 77.2889C61.1424 76.4588 60.042 76.67 58.8771 76.8895C58.2674 77.0048 57.6365 77.1229 57.0149 77.1017C56.9904 77.1017 56.967 77.0919 56.9497 77.0746C56.9324 77.0573 56.9227 77.0339 56.9227 77.0094C56.9227 76.985 56.9324 76.9615 56.9497 76.9442C56.967 76.9269 56.9904 76.9172 57.0149 76.9172C57.6172 76.9384 58.237 76.825 58.8365 76.7087C60.0513 76.48 61.1987 76.2642 62.0869 77.1589C62.0999 77.1718 62.1088 77.1882 62.1124 77.2062C62.116 77.2242 62.1141 77.2428 62.1071 77.2597C62.1001 77.2766 62.0882 77.2911 62.0729 77.3012C62.0576 77.3113 62.0397 77.3167 62.0214 77.3166L62.0278 77.3156Z" fill="#27DD6C"/>
<path d="M39.8113 75.5887C41.7021 73.2228 44.9156 71.3744 49.4102 72.0671C53.9048 72.7598 60.1223 78.1371 60.185 78.1371C60.2477 78.1371 49.246 80.5537 39.8113 75.5887Z" fill="url(#paint28_linear_125_5627)"/>
<path d="M58.8291 77.987C58.8075 77.987 58.7866 77.9795 58.77 77.9658C58.7165 77.9206 53.3346 73.4767 48.8373 73.1926C44.2882 72.9049 42.5607 74.1685 40.4439 76.1303C40.4259 76.147 40.4021 76.1558 40.3776 76.1548C40.3531 76.1539 40.33 76.1432 40.3134 76.1252C40.2968 76.1073 40.2879 76.0834 40.2889 76.0589C40.2898 76.0345 40.3005 76.0114 40.3185 75.9947C42.4675 74.0006 44.2218 72.7158 48.8465 73.0082C53.4047 73.2969 58.8318 77.7786 58.8862 77.8237C58.9009 77.8359 58.9114 77.8522 58.9164 77.8705C58.9214 77.8889 58.9206 77.9083 58.9141 77.9261C58.9077 77.944 58.8959 77.9594 58.8803 77.9703C58.8647 77.9812 58.8462 77.987 58.8272 77.987H58.8291Z" fill="#27DD6C"/>
<path d="M57.4705 78.0943C57.4567 78.0942 57.443 78.091 57.4306 78.0849C57.4181 78.0789 57.4072 78.0701 57.3986 78.0592C57.3728 78.026 54.7173 74.7526 49.5964 74.154C44.2819 73.5323 42.8467 74.9675 41.0297 76.7845C41.012 76.7996 40.9893 76.8075 40.9661 76.8066C40.9429 76.8057 40.9209 76.7961 40.9045 76.7797C40.888 76.7633 40.8784 76.7412 40.8775 76.718C40.8766 76.6948 40.8845 76.6721 40.8996 76.6545C42.9546 74.5986 44.4756 73.37 49.6186 73.9714C54.8188 74.5792 57.5176 77.9116 57.5443 77.9448C57.555 77.9584 57.5617 77.9747 57.5636 77.9919C57.5655 78.0091 57.5626 78.0265 57.5551 78.042C57.5476 78.0576 57.5358 78.0708 57.5212 78.08C57.5066 78.0892 57.4897 78.0942 57.4724 78.0943H57.4705Z" fill="#27DD6C"/>
<path d="M55.0124 77.7884C54.9981 77.7884 54.984 77.7851 54.9712 77.7787C54.9584 77.7723 54.9472 77.763 54.9386 77.7515C54.9257 77.7349 53.6344 76.0433 50.5021 75.3128C47.5764 74.6303 45.4412 74.8839 43.1326 76.189C43.1113 76.2013 43.086 76.2046 43.0623 76.1982C43.0386 76.1918 43.0184 76.1762 43.0062 76.1549C42.994 76.1336 42.9907 76.1084 42.9971 76.0847C43.0035 76.061 43.0191 76.0408 43.0403 76.0286C45.3932 74.6985 47.5672 74.4393 50.5427 75.133C53.7451 75.8801 55.0318 77.5698 55.0853 77.6417C55.0956 77.6554 55.1018 77.6717 55.1034 77.6888C55.1049 77.7059 55.1016 77.723 55.094 77.7383C55.0863 77.7536 55.0746 77.7665 55.06 77.7755C55.0454 77.7845 55.0286 77.7893 55.0115 77.7893L55.0124 77.7884Z" fill="#27DD6C"/>
<path d="M37.6584 75.2065C38.091 73.4236 38.851 71.6407 42.142 72.6627C45.4329 73.6846 48.4351 76.5458 48.4351 76.5458H49.6074C49.6074 76.5458 46.1947 72.8988 42.4177 71.8501C38.9571 70.889 37.3965 72.4302 37.0681 74.8542L37.6584 75.2065Z" fill="url(#paint29_linear_125_5627)"/>
<path d="M85.9219 71.3354L85.7956 73.5462L79.4424 76.222L75.3832 76.0338L63.0911 78.7031L61.1929 77.5621L65.8729 73.3608L79.5559 69.5312L85.9219 71.3354Z" fill="url(#paint30_linear_125_5627)"/>
<path opacity="0.15" d="M85.9219 71.3354L85.7956 73.5462L79.4424 76.222L75.3832 76.0338L63.0911 78.7031L61.1929 77.5621L65.8729 73.3608L79.5559 69.5312L85.9219 71.3354Z" fill="url(#paint31_linear_125_5627)"/>
<path d="M77.5103 74.947L75.9598 85.4294L75.1399 90.9718L73.784 100.134L60.8416 105.132L39.754 101.574L38.1546 91.1591L37.2489 85.2643L35.6228 74.6758L61.1931 77.5618L77.5103 74.947Z" fill="url(#paint32_linear_125_5627)"/>
<path d="M61.1932 77.5607L55.0707 81.5222L47.7315 83.3198L30.8572 80.4984L31.821 77.2499L36.2262 73.9082L61.1932 77.5607Z" fill="url(#paint33_linear_125_5627)"/>
<path d="M77.5105 74.9473L75.96 85.4297L75.14 90.9721L73.7842 100.134L60.8418 105.132L61.1932 77.5621L77.5105 74.9473Z" fill="url(#paint34_linear_125_5627)"/>
<path d="M85.9221 71.3354L85.7958 73.5462L79.4426 76.222L75.3834 76.0338L65.873 73.3608L79.5561 69.5312L85.9221 71.3354Z" fill="url(#paint35_linear_125_5627)"/>
<path d="M52.5498 102.069C51.2022 104.297 49.0716 105.958 48.3734 106.284C48.0266 106.447 47.4824 106.639 46.6385 106.792C45.7945 106.946 44.6508 107.059 43.105 107.063H43.033C39.9404 107.055 38.4563 106.609 37.7636 106.284C37.071 105.96 34.9357 104.297 33.5882 102.069C33.2036 101.434 33.2192 100.876 33.5319 100.394C34.0272 99.6212 35.2659 99.0382 36.7777 98.6241C38.7478 98.0855 41.1809 97.8346 43.033 97.8281H43.105C46.3775 97.8401 51.4642 98.613 52.6052 100.395C52.9141 100.877 52.9353 101.434 52.5498 102.069Z" fill="url(#paint36_linear_125_5627)"/>
<path d="M52.6052 100.395C52.5573 101.254 51.6137 102.033 50.0937 102.622C48.3504 103.297 45.8509 103.72 43.0691 103.72C40.2873 103.72 37.7868 103.297 36.0435 102.622C34.5226 102.033 33.579 101.253 33.532 100.394C34.0273 99.6212 35.266 99.0382 36.7777 98.6241C38.7479 98.0855 41.181 97.8346 43.0331 97.8281H43.105C46.3775 97.8401 51.4597 98.613 52.6052 100.395Z" fill="url(#paint37_linear_125_5627)"/>
<path opacity="0.15" d="M52.6052 100.395C52.5573 101.254 51.6137 102.033 50.0937 102.622C48.3504 103.297 45.8509 103.72 43.0691 103.72C40.2873 103.72 37.7868 103.297 36.0435 102.622C34.5226 102.033 33.579 101.253 33.532 100.394C34.0273 99.6212 35.266 99.0382 36.7777 98.6241C38.7479 98.0855 41.181 97.8346 43.0331 97.8281H43.105C46.3775 97.8401 51.4597 98.613 52.6052 100.395Z" fill="url(#paint38_linear_125_5627)"/>
<path d="M50.0933 102.624C48.3501 103.298 45.8505 103.722 43.0687 103.722C40.2869 103.722 37.7865 103.298 36.0432 102.623C36.0589 101.247 39.1976 100.133 43.0687 100.133C46.9398 100.133 50.0758 101.248 50.0933 102.624Z" fill="url(#paint39_linear_125_5627)"/>
<path d="M45.503 101.769C46.4254 101.749 47.0378 101.917 47.4695 102.145C47.9011 102.373 48.5044 102.197 48.0229 101.743C47.5414 101.288 46.1505 100.853 45.3887 100.852C44.423 100.85 43.9793 101.803 45.503 101.769Z" fill="url(#paint40_linear_125_5627)"/>
<path d="M12.6877 69.7116L12.7477 70.2355L13.6451 78.057L14.0288 81.4052L15.0563 90.3612L16.0534 99.058V99.1115C16.0542 99.2362 16.0716 99.3603 16.105 99.4804L16.1152 99.5727H16.1309C16.628 101.037 19.4605 102.161 22.8806 102.161C26.3007 102.161 29.1332 101.038 29.6304 99.5727H29.646L29.6562 99.4804C29.6896 99.3603 29.707 99.2362 29.7078 99.1115V99.058L30.6994 90.3566L31.7268 81.3996L32.1105 78.0524L33.008 70.23L33.0679 69.707L12.6877 69.7116Z" fill="url(#paint41_linear_125_5627)"/>
<path d="M31.5461 76.116C30.0033 76.7215 28.4013 77.1638 26.7665 77.4359H26.748C24.1859 77.7525 21.5946 77.7525 19.0326 77.4359L18.9929 77.4304C17.3567 77.1592 15.7534 76.7168 14.2096 76.1105C13.8893 75.9435 13.5984 75.7254 13.3481 75.4648L13.3832 75.7692L13.6451 78.052L14.0288 81.4001L15.0563 90.3561L15.333 92.7773C20.1716 94.7357 25.5822 94.7357 30.4208 92.7773L30.6975 90.3561L31.725 81.3992L32.1087 78.052L32.3706 75.7692L32.4057 75.4648C32.1565 75.7272 31.8661 75.9471 31.5461 76.116Z" fill="url(#paint42_linear_125_5627)"/>
<path d="M22.8777 80.6839C19.2556 80.6839 15.8531 79.7819 13.5408 78.2083C13.5207 78.1947 13.5036 78.1773 13.4903 78.157C13.4769 78.1367 13.4678 78.1141 13.4632 78.0902C13.4587 78.0664 13.4589 78.042 13.4638 78.0182C13.4687 77.9945 13.4783 77.972 13.4919 77.9519C13.5055 77.9319 13.523 77.9147 13.5432 77.9014C13.5635 77.8881 13.5862 77.8789 13.61 77.8744C13.6338 77.8698 13.6583 77.87 13.682 77.8749C13.7057 77.8799 13.7283 77.8894 13.7483 77.903C16.0007 79.435 19.3276 80.314 22.8795 80.314C26.4315 80.314 29.7556 79.435 32.0108 77.903C32.0308 77.8894 32.0534 77.8799 32.0771 77.8749C32.1008 77.87 32.1253 77.8698 32.1491 77.8744C32.1729 77.8789 32.1956 77.8881 32.2159 77.9014C32.2361 77.9147 32.2536 77.9319 32.2672 77.9519C32.2808 77.972 32.2904 77.9945 32.2953 78.0182C32.3002 78.042 32.3004 78.0664 32.2959 78.0902C32.2913 78.1141 32.2821 78.1367 32.2688 78.157C32.2555 78.1773 32.2384 78.1947 32.2183 78.2083C29.9014 79.7819 26.4979 80.6839 22.8777 80.6839Z" fill="#1E6539"/>
<path d="M34.4661 69.1682C31.5257 70.4152 27.4203 71.189 22.8777 71.189C18.3352 71.189 14.2307 70.4152 11.2894 69.1682C11.2894 69.1682 11.0081 67.673 11.0726 66.6013C14.0241 65.2989 18.2227 64.4863 22.8787 64.4863C27.5347 64.4863 31.7332 65.2989 34.6847 66.6013C34.7474 67.673 34.4661 69.1682 34.4661 69.1682Z" fill="url(#paint43_linear_125_5627)"/>
<path d="M33.1721 67.0087C30.4687 68.0851 26.8808 68.7408 22.9451 68.7408C18.943 68.7408 15.3025 68.0629 12.5825 66.9524C12.767 65.7257 13.0123 64.1411 13.0658 63.8635C13.1959 63.1828 15.119 62.0529 22.8003 62.0391H22.9451C30.6292 62.0529 32.5486 63.1828 32.6796 63.8635C32.7358 64.1448 32.983 65.7746 33.1721 67.0087Z" fill="url(#paint44_linear_125_5627)"/>
<path d="M22.8777 92.5214C19.8939 92.5214 17.0817 91.8103 14.9603 90.5181C14.9396 90.5055 14.9215 90.489 14.9072 90.4694C14.8929 90.4498 14.8826 90.4276 14.8768 90.4041C14.8711 90.3805 14.87 90.3561 14.8738 90.3321C14.8775 90.3082 14.8859 90.2852 14.8985 90.2645C14.9111 90.2437 14.9276 90.2257 14.9472 90.2114C14.9667 90.1971 14.9889 90.1868 15.0125 90.181C15.036 90.1753 15.0605 90.1742 15.0845 90.178C15.1084 90.1817 15.1314 90.1901 15.1521 90.2027C17.2172 91.4598 19.9603 92.1525 22.8777 92.1525C25.7951 92.1525 28.5372 91.4598 30.6033 90.2027C30.624 90.1901 30.647 90.1817 30.6709 90.178C30.6949 90.1742 30.7193 90.1753 30.7429 90.181C30.7665 90.1868 30.7887 90.1971 30.8082 90.2114C30.8278 90.2257 30.8443 90.2437 30.8569 90.2645C30.8695 90.2852 30.8779 90.3082 30.8816 90.3321C30.8853 90.3561 30.8843 90.3805 30.8786 90.4041C30.8728 90.4276 30.8625 90.4498 30.8482 90.4694C30.8339 90.489 30.8158 90.5055 30.7951 90.5181C28.6728 91.8094 25.8606 92.5214 22.8777 92.5214Z" fill="#1E6539"/>
<path d="M22.8777 65.0658C27.4032 65.0658 31.0719 64.5654 31.0719 63.948C31.0719 63.3306 27.4032 62.8301 22.8777 62.8301C18.3522 62.8301 14.6836 63.3306 14.6836 63.948C14.6836 64.5654 18.3522 65.0658 22.8777 65.0658Z" fill="url(#paint45_linear_125_5627)"/>
<path d="M75.9597 85.4288L75.1397 90.9712L60.978 94.4364L38.1545 91.1584L37.2488 85.2637L61.0518 88.6561L75.9597 85.4288Z" fill="url(#paint46_linear_125_5627)"/>
<path d="M45.5491 50.1642C44.8002 50.1301 44.3095 50.368 43.9092 50.7397L43.0126 48.0197C42.9548 47.8444 42.9673 47.6534 43.0475 47.487C43.1277 47.3207 43.2693 47.1919 43.4425 47.1278L43.7791 47.0033C43.8698 46.9697 43.9664 46.955 44.0629 46.9599C44.1595 46.9648 44.2541 46.9894 44.3409 47.032C44.4276 47.0746 44.5049 47.1344 44.5678 47.2078C44.6307 47.2812 44.6781 47.3667 44.707 47.4589L45.5491 50.1642Z" fill="url(#paint47_linear_125_5627)"/>
<path d="M51.3193 49.4266C50.5814 49.291 50.0649 49.4616 49.6157 49.7789L49.1268 47.0451C49.0943 46.8629 49.1338 46.6753 49.2371 46.5217C49.3404 46.3682 49.4993 46.2608 49.6802 46.2223L50.0317 46.1467C50.1262 46.1264 50.2238 46.1256 50.3186 46.1443C50.4134 46.1629 50.5035 46.2006 50.5833 46.2551C50.6631 46.3097 50.731 46.3798 50.7828 46.4614C50.8346 46.543 50.8694 46.6342 50.8848 46.7296L51.3193 49.4266Z" fill="url(#paint48_linear_125_5627)"/>
<path d="M70.8428 70.1975C70.9765 70.4742 71.5871 70.0028 71.5262 69.7916C71.4838 69.6422 70.6445 69.7879 70.8428 70.1975Z" fill="url(#paint49_linear_125_5627)"/>
<path d="M70.8139 71.1466C70.7641 71.4463 71.6034 71.4343 71.6062 71.2139C71.609 71.0359 70.8886 70.6983 70.8139 71.1466Z" fill="url(#paint50_linear_125_5627)"/>
<path d="M57.8743 74.2798C58.0831 74.2798 58.2524 74.1105 58.2524 73.9016C58.2524 73.6927 58.0831 73.5234 57.8743 73.5234C57.6654 73.5234 57.4961 73.6927 57.4961 73.9016C57.4961 74.1105 57.6654 74.2798 57.8743 74.2798Z" fill="url(#paint51_linear_125_5627)"/>
<path d="M61.1727 75.0061C61.3734 75.0061 61.5361 74.8434 61.5361 74.6427C61.5361 74.442 61.3734 74.2793 61.1727 74.2793C60.972 74.2793 60.8093 74.442 60.8093 74.6427C60.8093 74.8434 60.972 75.0061 61.1727 75.0061Z" fill="url(#paint52_linear_125_5627)"/>
<path d="M65.7097 72.7759C65.9461 72.7759 66.1377 72.5843 66.1377 72.3479C66.1377 72.1115 65.9461 71.9199 65.7097 71.9199C65.4733 71.9199 65.2817 72.1115 65.2817 72.3479C65.2817 72.5843 65.4733 72.7759 65.7097 72.7759Z" fill="url(#paint53_linear_125_5627)"/>
<path d="M51.2149 73.2399C51.4824 73.2399 51.6992 73.0232 51.6992 72.7557C51.6992 72.4883 51.4824 72.2715 51.2149 72.2715C50.9475 72.2715 50.7307 72.4883 50.7307 72.7557C50.7307 73.0232 50.9475 73.2399 51.2149 73.2399Z" fill="url(#paint54_linear_125_5627)"/>
<path d="M49.5411 73.756C49.7331 73.756 49.8888 73.6003 49.8888 73.4083C49.8888 73.2162 49.7331 73.0605 49.5411 73.0605C49.349 73.0605 49.1934 73.2162 49.1934 73.4083C49.1934 73.6003 49.349 73.756 49.5411 73.756Z" fill="url(#paint55_linear_125_5627)"/>
<path d="M64.1539 70.9236C64.8143 70.146 64.4619 69.1342 64.0211 69.9763C63.9814 68.8547 63.1218 68.7772 62.8506 71.0831C62.5739 70.2484 62.1755 70.586 62.0666 71.2943C62.0472 71.4189 61.837 71.0112 61.6497 71.0979C61.4625 71.1846 61.3518 71.6245 61.3075 72.0313C61.2633 72.4381 60.8399 73.1381 60.9487 73.3419C61.0576 73.5458 62.229 73.3281 63.3847 73.0459C64.6123 72.7461 64.4251 71.7546 63.6383 71.952C64.5191 71.655 64.7922 70.7409 64.1539 70.9236Z" fill="url(#paint56_linear_125_5627)"/>
<path d="M60.1002 73.6139C60.0757 73.6148 60.0519 73.6059 60.034 73.5892C60.0161 73.5725 60.0056 73.5494 60.0047 73.5249C60.0038 73.5004 60.0127 73.4766 60.0294 73.4587C60.0461 73.4408 60.0692 73.4303 60.0937 73.4294C60.9838 73.3649 62.2225 72.7958 62.9825 71.6696C62.9893 71.6595 62.998 71.6509 63.0081 71.6442C63.0182 71.6375 63.0295 71.6329 63.0414 71.6306C63.0533 71.6283 63.0656 71.6283 63.0775 71.6308C63.0894 71.6332 63.1006 71.6379 63.1107 71.6447C63.1207 71.6515 63.1294 71.6602 63.1361 71.6703C63.1428 71.6804 63.1474 71.6917 63.1497 71.7036C63.152 71.7155 63.152 71.7278 63.1495 71.7397C63.1471 71.7516 63.1424 71.7629 63.1356 71.7729C62.3405 72.9498 61.0419 73.5457 60.1075 73.6176L60.1002 73.6139Z" fill="#3B8256"/>
<path d="M75.9597 85.4297L75.1398 90.9721L60.978 94.4373L61.0518 88.657L75.9597 85.4297Z" fill="url(#paint57_linear_125_5627)"/>
<defs>
<linearGradient id="paint0_linear_125_5627" x1="55.2628" y1="92.0557" x2="36.0794" y2="123.597" gradientUnits="userSpaceOnUse">
<stop stop-color="#E1F7E8"/>
<stop offset="1" stop-color="#95E0B1"/>
</linearGradient>
<linearGradient id="paint1_linear_125_5627" x1="43.5301" y1="105.146" x2="48.6971" y2="125.422" gradientUnits="userSpaceOnUse">
<stop stop-color="#E1F7E8"/>
<stop offset="1" stop-color="#95E0B1"/>
</linearGradient>
<linearGradient id="paint2_linear_125_5627" x1="56.8524" y1="80.8495" x2="31.7609" y2="118.018" gradientUnits="userSpaceOnUse">
<stop stop-color="#E1F7E8"/>
<stop offset="1" stop-color="#95E0B1"/>
</linearGradient>
<linearGradient id="paint3_linear_125_5627" x1="37.2379" y1="85.7747" x2="46.9207" y2="115.759" gradientUnits="userSpaceOnUse">
<stop stop-color="#E1F7E8"/>
<stop offset="1" stop-color="#95E0B1"/>
</linearGradient>
<linearGradient id="paint4_linear_125_5627" x1="59.5413" y1="22.9767" x2="65.7265" y2="57.6745" gradientUnits="userSpaceOnUse">
<stop stop-color="#C4EED4"/>
<stop offset="1" stop-color="#3FBD6F"/>
</linearGradient>
<linearGradient id="paint5_linear_125_5627" x1="71.5348" y1="18.6593" x2="32.602" y2="46.7286" gradientUnits="userSpaceOnUse">
<stop stop-color="#E1F7E8"/>
<stop offset="1" stop-color="#95E0B1"/>
</linearGradient>
<linearGradient id="paint6_linear_125_5627" x1="91.5109" y1="44.1133" x2="67.5612" y2="84.6975" gradientUnits="userSpaceOnUse">
<stop stop-color="white"/>
<stop offset="1" stop-color="#DDF3E5"/>
</linearGradient>
<linearGradient id="paint7_linear_125_5627" x1="82.4607" y1="38.7735" x2="58.512" y2="79.3577" gradientUnits="userSpaceOnUse">
<stop stop-color="white"/>
<stop offset="1" stop-color="#DDF3E5"/>
</linearGradient>
<linearGradient id="paint8_linear_125_5627" x1="54.5983" y1="13.073" x2="44.6756" y2="63.1371" gradientUnits="userSpaceOnUse">
<stop stop-color="white"/>
<stop offset="1" stop-color="#DDF3E5"/>
</linearGradient>
<linearGradient id="paint9_linear_125_5627" x1="30.6616" y1="97.0514" x2="33.7542" y2="1.19451" gradientUnits="userSpaceOnUse">
<stop stop-color="white"/>
<stop offset="1" stop-color="white" stop-opacity="0"/>
</linearGradient>
<linearGradient id="paint10_linear_125_5627" x1="24.3692" y1="96.8483" x2="27.4618" y2="0.991484" gradientUnits="userSpaceOnUse">
<stop stop-color="white"/>
<stop offset="1" stop-color="white" stop-opacity="0"/>
</linearGradient>
<linearGradient id="paint11_linear_125_5627" x1="38.803" y1="97.3142" x2="41.8956" y2="1.45737" gradientUnits="userSpaceOnUse">
<stop stop-color="white"/>
<stop offset="1" stop-color="white" stop-opacity="0"/>
</linearGradient>
<linearGradient id="paint12_linear_125_5627" x1="43.5356" y1="63.7851" x2="44.3731" y2="72.0457" gradientUnits="userSpaceOnUse">
<stop stop-color="white"/>
<stop offset="1" stop-color="#DDF3E5"/>
</linearGradient>
<linearGradient id="paint13_linear_125_5627" x1="52.2463" y1="53.8213" x2="47.8734" y2="67.7128" gradientUnits="userSpaceOnUse">
<stop stop-color="#52BE7B"/>
<stop offset="1" stop-color="#3FBD6F"/>
</linearGradient>
<linearGradient id="paint14_linear_125_5627" x1="57.8866" y1="54.7227" x2="48.9398" y2="70.6664" gradientUnits="userSpaceOnUse">
<stop stop-color="#52BE7B"/>
<stop offset="1" stop-color="#3FBD6F"/>
</linearGradient>
<linearGradient id="paint15_linear_125_5627" x1="42.2139" y1="72.3292" x2="43.3484" y2="68.7818" gradientUnits="userSpaceOnUse">
<stop stop-color="#48C979"/>
<stop offset="1" stop-color="#27DD6C"/>
</linearGradient>
<linearGradient id="paint16_linear_125_5627" x1="42.5147" y1="73.2154" x2="42.8799" y2="70.7786" gradientUnits="userSpaceOnUse">
<stop stop-color="#A2F9C3"/>
<stop offset="1" stop-color="#BAFCD3"/>
</linearGradient>
<linearGradient id="paint17_linear_125_5627" x1="47.0293" y1="70.2131" x2="47.8152" y2="66.9563" gradientUnits="userSpaceOnUse">
<stop stop-color="#48C979"/>
<stop offset="1" stop-color="#27DD6C"/>
</linearGradient>
<linearGradient id="paint18_linear_125_5627" x1="47.3181" y1="72.3522" x2="48.3659" y2="69.5492" gradientUnits="userSpaceOnUse">
<stop stop-color="#A2F9C3"/>
<stop offset="1" stop-color="#BAFCD3"/>
</linearGradient>
<linearGradient id="paint19_linear_125_5627" x1="65.4182" y1="61.8407" x2="66.3184" y2="69.818" gradientUnits="userSpaceOnUse">
<stop stop-color="white"/>
<stop offset="1" stop-color="#DDF3E5"/>
</linearGradient>
<linearGradient id="paint20_linear_125_5627" x1="73.1909" y1="66.1361" x2="73.8209" y2="70.8032" gradientUnits="userSpaceOnUse">
<stop stop-color="#4EE989"/>
<stop offset="1" stop-color="#32D36F"/>
</linearGradient>
<linearGradient id="paint21_linear_125_5627" x1="68.8051" y1="69.1374" x2="68.3504" y2="78.8193" gradientUnits="userSpaceOnUse">
<stop stop-color="#4EE989"/>
<stop offset="1" stop-color="#32D36F"/>
</linearGradient>
<linearGradient id="paint22_linear_125_5627" x1="72.3886" y1="65.5635" x2="70.8151" y2="70.474" gradientUnits="userSpaceOnUse">
<stop stop-color="#4EE989"/>
<stop offset="1" stop-color="#32D36F"/>
</linearGradient>
<linearGradient id="paint23_linear_125_5627" x1="61.4496" y1="68.2933" x2="60.9432" y2="72.8515" gradientUnits="userSpaceOnUse">
<stop stop-color="#E0FFEC"/>
<stop offset="1" stop-color="#74ECA2"/>
</linearGradient>
<linearGradient id="paint24_linear_125_5627" x1="61.0879" y1="71.3181" x2="60.2522" y2="75.0287" gradientUnits="userSpaceOnUse">
<stop stop-color="#63F39A"/>
<stop offset="1" stop-color="#51D282"/>
</linearGradient>
<linearGradient id="paint25_linear_125_5627" x1="58.8142" y1="71.128" x2="47.1391" y2="73.7254" gradientUnits="userSpaceOnUse">
<stop stop-color="#E0FFEC"/>
<stop offset="1" stop-color="#74ECA2"/>
</linearGradient>
<linearGradient id="paint26_linear_125_5627" x1="54.8215" y1="71.6353" x2="54.3087" y2="74.7777" gradientUnits="userSpaceOnUse">
<stop stop-color="#63F39A"/>
<stop offset="1" stop-color="#51D282"/>
</linearGradient>
<linearGradient id="paint27_linear_125_5627" x1="63.6088" y1="77.5017" x2="58.3791" y2="73.5374" gradientUnits="userSpaceOnUse">
<stop stop-color="#74ECA2"/>
<stop offset="1" stop-color="#63F39A"/>
</linearGradient>
<linearGradient id="paint28_linear_125_5627" x1="52.8173" y1="74.9246" x2="44.9571" y2="78.982" gradientUnits="userSpaceOnUse">
<stop stop-color="#74ECA2"/>
<stop offset="1" stop-color="#63F39A"/>
</linearGradient>
<linearGradient id="paint29_linear_125_5627" x1="43.4821" y1="75.0755" x2="44.3215" y2="72.0549" gradientUnits="userSpaceOnUse">
<stop stop-color="#3B8256"/>
<stop offset="1" stop-color="#6FC791"/>
</linearGradient>
<linearGradient id="paint30_linear_125_5627" x1="78.2037" y1="83.5325" x2="74.8464" y2="76.9691" gradientUnits="userSpaceOnUse">
<stop stop-color="white"/>
<stop offset="1" stop-color="#DDF3E5"/>
</linearGradient>
<linearGradient id="paint31_linear_125_5627" x1="73.5892" y1="74.6826" x2="73.2424" y2="77.8573" gradientUnits="userSpaceOnUse">
<stop stop-color="#53BE7C"/>
<stop offset="1" stop-color="#53BE7C" stop-opacity="0"/>
</linearGradient>
<linearGradient id="paint32_linear_125_5627" x1="39.6913" y1="114.568" x2="56.0998" y2="84.8769" gradientUnits="userSpaceOnUse">
<stop stop-color="white"/>
<stop offset="1" stop-color="#DDF3E5"/>
</linearGradient>
<linearGradient id="paint33_linear_125_5627" x1="43.8724" y1="79.5502" x2="56.8425" y2="68.9902" gradientUnits="userSpaceOnUse">
<stop stop-color="white"/>
<stop offset="1" stop-color="#DDF3E5"/>
</linearGradient>
<linearGradient id="paint34_linear_125_5627" x1="69.2582" y1="90.1263" x2="74.3247" y2="95.4225" gradientUnits="userSpaceOnUse">
<stop stop-color="white"/>
<stop offset="1" stop-color="#DDF3E5"/>
</linearGradient>
<linearGradient id="paint35_linear_125_5627" x1="76.8056" y1="69.2997" x2="75.352" y2="75.5136" gradientUnits="userSpaceOnUse">
<stop stop-color="white"/>
<stop offset="1" stop-color="#DDF3E5"/>
</linearGradient>
<linearGradient id="paint36_linear_125_5627" x1="46.3424" y1="97.9969" x2="35.5454" y2="109.196" gradientUnits="userSpaceOnUse">
<stop stop-color="white"/>
<stop offset="1" stop-color="#DDF3E5"/>
</linearGradient>
<linearGradient id="paint37_linear_125_5627" x1="41.5232" y1="97.9416" x2="46.503" y2="106.319" gradientUnits="userSpaceOnUse">
<stop stop-color="white"/>
<stop offset="1" stop-color="#DDF3E5"/>
</linearGradient>
<linearGradient id="paint38_linear_125_5627" x1="46.0455" y1="97.1686" x2="41.1912" y2="102.769" gradientUnits="userSpaceOnUse">
<stop stop-color="#53BE7C"/>
<stop offset="1" stop-color="#53BE7C" stop-opacity="0"/>
</linearGradient>
<linearGradient id="paint39_linear_125_5627" x1="41.7784" y1="99.8469" x2="43.8527" y2="104.147" gradientUnits="userSpaceOnUse">
<stop stop-color="#4EE989"/>
<stop offset="1" stop-color="#32D36F"/>
</linearGradient>
<linearGradient id="paint40_linear_125_5627" x1="46.3857" y1="105.371" x2="46.4189" y2="109.274" gradientUnits="userSpaceOnUse">
<stop stop-color="#4EE989"/>
<stop offset="1" stop-color="#32D36F"/>
</linearGradient>
<linearGradient id="paint41_linear_125_5627" x1="27.4176" y1="86.4873" x2="16.1401" y2="80.4837" gradientUnits="userSpaceOnUse">
<stop stop-color="#48C979"/>
<stop offset="1" stop-color="#27DD6C"/>
</linearGradient>
<linearGradient id="paint42_linear_125_5627" x1="24.6524" y1="79.0288" x2="14.9171" y2="96.9583" gradientUnits="userSpaceOnUse">
<stop stop-color="#63F39A"/>
<stop offset="1" stop-color="#51D282"/>
</linearGradient>
<linearGradient id="paint43_linear_125_5627" x1="22.8777" y1="56.3097" x2="22.8777" y2="72.0514" gradientUnits="userSpaceOnUse">
<stop offset="0.04" stop-color="#1E6539"/>
<stop offset="1" stop-color="#122E1D"/>
</linearGradient>
<linearGradient id="paint44_linear_125_5627" x1="19.4974" y1="58.9501" x2="27.7634" y2="75.9333" gradientUnits="userSpaceOnUse">
<stop offset="0.04" stop-color="#1E6539"/>
<stop offset="1" stop-color="#122E1D"/>
</linearGradient>
<linearGradient id="paint45_linear_125_5627" x1="22.8777" y1="58.3715" x2="22.8777" y2="65.7816" gradientUnits="userSpaceOnUse">
<stop offset="0.04" stop-color="#1E6539"/>
<stop offset="1" stop-color="#122E1D"/>
</linearGradient>
<linearGradient id="paint46_linear_125_5627" x1="64.114" y1="78.9096" x2="47.6206" y2="98.0852" gradientUnits="userSpaceOnUse">
<stop stop-color="#C4E8D2"/>
<stop offset="1" stop-color="#6FC791"/>
</linearGradient>
<linearGradient id="paint47_linear_125_5627" x1="45.0354" y1="47.3335" x2="43.7911" y2="49.8561" gradientUnits="userSpaceOnUse">
<stop stop-color="#52BE7B"/>
<stop offset="1" stop-color="#3FBD6F"/>
</linearGradient>
<linearGradient id="paint48_linear_125_5627" x1="51.1357" y1="46.3791" x2="49.5216" y2="49.3731" gradientUnits="userSpaceOnUse">
<stop stop-color="#52BE7B"/>
<stop offset="1" stop-color="#3FBD6F"/>
</linearGradient>
<linearGradient id="paint49_linear_125_5627" x1="71.0319" y1="70.0895" x2="64.129" y2="76.7139" gradientUnits="userSpaceOnUse">
<stop stop-color="#4EE989"/>
<stop offset="1" stop-color="#32D36F"/>
</linearGradient>
<linearGradient id="paint50_linear_125_5627" x1="71.6505" y1="70.7352" x2="64.7476" y2="77.3586" gradientUnits="userSpaceOnUse">
<stop stop-color="#4EE989"/>
<stop offset="1" stop-color="#32D36F"/>
</linearGradient>
<linearGradient id="paint51_linear_125_5627" x1="57.8447" y1="74.0658" x2="58.0292" y2="73.0171" gradientUnits="userSpaceOnUse">
<stop stop-color="#3B8256"/>
<stop offset="1" stop-color="#6FC791"/>
</linearGradient>
<linearGradient id="paint52_linear_125_5627" x1="61.1792" y1="74.7405" x2="61.1303" y2="74.0044" gradientUnits="userSpaceOnUse">
<stop stop-color="#3B8256"/>
<stop offset="1" stop-color="#6FC791"/>
</linearGradient>
<linearGradient id="paint53_linear_125_5627" x1="65.6996" y1="72.4669" x2="65.7817" y2="71.5003" gradientUnits="userSpaceOnUse">
<stop stop-color="#3B8256"/>
<stop offset="1" stop-color="#6FC791"/>
</linearGradient>
<linearGradient id="paint54_linear_125_5627" x1="51.1928" y1="72.9928" x2="51.3053" y2="71.7854" gradientUnits="userSpaceOnUse">
<stop stop-color="#3B8256"/>
<stop offset="1" stop-color="#6FC791"/>
</linearGradient>
<linearGradient id="paint55_linear_125_5627" x1="49.518" y1="73.6176" x2="49.6204" y2="72.6649" gradientUnits="userSpaceOnUse">
<stop stop-color="#3B8256"/>
<stop offset="1" stop-color="#6FC791"/>
</linearGradient>
<linearGradient id="paint56_linear_125_5627" x1="62.228" y1="69.446" x2="63.2564" y2="73.9046" gradientUnits="userSpaceOnUse">
<stop stop-color="#3B8256"/>
<stop offset="1" stop-color="#6FC791"/>
</linearGradient>
<linearGradient id="paint57_linear_125_5627" x1="64.8971" y1="86.4581" x2="76.1008" y2="97.3593" gradientUnits="userSpaceOnUse">
<stop stop-color="#C4E8D2"/>
<stop offset="1" stop-color="#6FC791"/>
</linearGradient>
</defs>
</svg>
