<svg width="15" height="14" viewBox="0 0 15 14" fill="none" xmlns="http://www.w3.org/2000/svg">
<g clip-path="url(#clip0_2016_3560)">
<path d="M3.74984 11.6618C5.0385 11.6618 6.08317 10.6177 6.08317 9.32967C6.08317 8.04167 5.0385 6.99756 3.74984 6.99756C2.46117 6.99756 1.4165 8.04167 1.4165 9.32967C1.4165 10.6177 2.46117 11.6618 3.74984 11.6618Z" stroke="white" stroke-linecap="round" stroke-linejoin="round"/>
<path d="M10.7498 11.6618C12.0385 11.6618 13.0832 10.6177 13.0832 9.32967C13.0832 8.04167 12.0385 6.99756 10.7498 6.99756C9.4612 6.99756 8.4165 8.04167 8.4165 9.32967C8.4165 10.6177 9.4612 11.6618 10.7498 11.6618Z" stroke="white" stroke-linecap="round" stroke-linejoin="round"/>
<path d="M3.75 9.32977H6.66667L9.58333 4.66553" stroke="white" stroke-linecap="round" stroke-linejoin="round"/>
<path d="M7.5415 7.87225L4.33317 4.08252M4.33317 4.08252H3.1665M4.33317 4.08252H6.08317" stroke="white" stroke-linecap="round" stroke-linejoin="round"/>
<path d="M10.7504 9.32955L9.00457 2.33343C9.00364 2.32962 9.0065 2.32597 9.01046 2.32618C9.99834 2.37862 11.5249 2.26996 11.9149 3.62542" stroke="white" stroke-linecap="round" stroke-linejoin="round"/>
</g>
<defs>
<clipPath id="clip0_2016_3560">
<rect width="14" height="14" fill="white" transform="translate(0.25)"/>
</clipPath>
</defs>
</svg>
