<svg width="59" height="58" viewBox="0 0 59 58" fill="none" xmlns="http://www.w3.org/2000/svg">
<path d="M0.75 29C0.75 13.1218 13.6218 0.25 29.5 0.25C45.3782 0.25 58.25 13.1218 58.25 29C58.25 44.8782 45.3782 57.75 29.5 57.75C13.6218 57.75 0.75 44.8782 0.75 29Z" fill="#F9F9FA"/>
<path d="M0.75 29C0.75 13.1218 13.6218 0.25 29.5 0.25C45.3782 0.25 58.25 13.1218 58.25 29C58.25 44.8782 45.3782 57.75 29.5 57.75C13.6218 57.75 0.75 44.8782 0.75 29Z" stroke="white" stroke-width="0.5"/>
<path d="M30.0832 40.6666C36.5265 40.6666 41.7498 35.4432 41.7498 28.9999C41.7498 22.5566 36.5265 17.3333 30.0832 17.3333C23.6398 17.3333 18.4165 22.5566 18.4165 28.9999C18.4165 35.4432 23.6398 40.6666 30.0832 40.6666Z" fill="#3C5A9A"/>
<path d="M33.571 20.8333H30.7974C29.1514 20.8333 27.3207 21.4848 27.3207 23.7302C27.3287 24.5126 27.3207 25.2619 27.3207 26.1052H25.4165V28.957H27.3796V37.1666H30.9868V28.9028H33.3677L33.5832 26.0972H30.9247C30.9247 26.0972 30.9306 24.8492 30.9247 24.4868C30.9247 23.5994 31.9058 23.6502 31.9648 23.6502C32.4316 23.6502 33.3394 23.6515 33.5724 23.6502V20.8333H33.571Z" fill="white"/>
</svg>
