<svg width="59" height="58" viewBox="0 0 59 58" fill="none" xmlns="http://www.w3.org/2000/svg">
<path d="M0.75 29C0.75 13.1218 13.6218 0.25 29.5 0.25C45.3782 0.25 58.25 13.1218 58.25 29C58.25 44.8782 45.3782 57.75 29.5 57.75C13.6218 57.75 0.75 44.8782 0.75 29Z" fill="#F9F9FA"/>
<path d="M0.75 29C0.75 13.1218 13.6218 0.25 29.5 0.25C45.3782 0.25 58.25 13.1218 58.25 29C58.25 44.8782 45.3782 57.75 29.5 57.75C13.6218 57.75 0.75 44.8782 0.75 29Z" stroke="white" stroke-width="0.5"/>
<path d="M40.2973 29.2592C40.2973 28.2999 40.2208 27.5999 40.0553 26.874H29.2944V31.2036H35.6108C35.4835 32.2796 34.7959 33.8999 33.2677 34.9888L33.2462 35.1337L36.6486 37.8167L36.8844 37.8407C39.0492 35.8055 40.2973 32.811 40.2973 29.2592Z" fill="#4285F4"/>
<path d="M29.2945 40.6666C32.389 40.6666 34.9868 39.6295 36.8844 37.8407L33.2677 34.9888C32.2999 35.6758 31.0009 36.1555 29.2945 36.1555C26.2636 36.1555 23.6912 34.1203 22.7742 31.3074L22.6398 31.319L19.1019 34.106L19.0557 34.237C20.9404 38.048 24.8118 40.6666 29.2945 40.6666Z" fill="#34A853"/>
<path d="M22.7745 31.3073C22.5326 30.5814 22.3926 29.8035 22.3926 28.9999C22.3926 28.1961 22.5326 27.4184 22.7618 26.6925L22.7554 26.5379L19.1732 23.7061L19.056 23.7628C18.2792 25.3443 17.8335 27.1203 17.8335 28.9999C17.8335 30.8795 18.2792 32.6554 19.056 34.2369L22.7745 31.3073Z" fill="#FBBC05"/>
<path d="M29.2945 21.8443C31.4466 21.8443 32.8983 22.7906 33.7261 23.5814L36.9608 20.3666C34.9742 18.487 32.389 17.3333 29.2945 17.3333C24.8118 17.3333 20.9404 19.9517 19.0557 23.7628L22.7615 26.6925C23.6912 23.8795 26.2636 21.8443 29.2945 21.8443Z" fill="#EB4335"/>
</svg>
