<svg width="24" height="24" viewBox="0 0 24 24" fill="none" xmlns="http://www.w3.org/2000/svg">
<path d="M24.0011 12.27C24.0011 11.48 23.9296 10.73 23.807 10H12.2617V14.51H18.8721C18.5758 15.99 17.7074 17.24 16.42 18.09V21.09H20.3638C22.6729 19 24.0011 15.92 24.0011 12.27Z" fill="#4285F4"/>
<path d="M12.2608 24C15.5711 24 18.3399 22.92 20.3629 21.09L16.4191 18.09C15.3157 18.81 13.916 19.25 12.2608 19.25C9.06287 19.25 6.35535 17.14 5.38474 14.29H1.31836V17.38C3.33111 21.3 7.46901 24 12.2608 24Z" fill="#34A853"/>
<path d="M5.38437 14.2901C5.12895 13.5701 4.99612 12.8001 4.99612 12.0001C4.99612 11.2001 5.13916 10.4301 5.38437 9.71012V6.62012H1.318C0.480199 8.24012 0 10.0601 0 12.0001C0 13.9401 0.480199 15.7601 1.318 17.3801L5.38437 14.2901Z" fill="#FBBC05"/>
<path d="M12.2608 4.75C14.0692 4.75 15.6835 5.36001 16.9606 6.55001L20.4548 3.13C18.3399 1.19 15.5711 0 12.2608 0C7.46901 0 3.33111 2.7 1.31836 6.62001L5.38474 9.71001C6.35535 6.86001 9.06287 4.75 12.2608 4.75Z" fill="#EA4335"/>
</svg>
