<svg width="24" height="24" viewBox="0 0 24 24" fill="none" xmlns="http://www.w3.org/2000/svg">
<path d="M18.5 3.00195L15.0606 6.44129C14.4748 7.02708 14.4748 7.97682 15.0606 8.56261L15.75 9.25195M15.75 9.25195L16.4393 9.94129C17.0251 10.5271 17.9748 10.5271 18.5606 9.94129L22 6.50195M15.75 9.25195L4 21.0019" stroke="#696A71" stroke-width="1.5" stroke-linecap="round" stroke-linejoin="round"/>
<path d="M20 4.99805L17.5 7.49805" stroke="#696A71" stroke-width="1.5" stroke-linecap="round" stroke-linejoin="round"/>
<path d="M7.98914 8.98914C6.79472 10.1835 5.15674 10.4821 3.66377 8.98914C2.17075 7.49611 1.38801 4.77685 2.58243 3.58243C3.77685 2.38801 6.49611 3.17075 7.98914 4.66377C9.48211 6.15675 9.18356 7.79472 7.98914 8.98914ZM7.98914 8.98914L20 21" stroke="#696A71" stroke-width="1.5" stroke-linecap="round" stroke-linejoin="round"/>
</svg>
