<svg width="151" height="121" viewBox="0 0 151 121" fill="none" xmlns="http://www.w3.org/2000/svg">
<path d="M71.9577 120.501C100.447 120.501 123.544 97.4039 123.544 68.8128C123.544 40.2217 100.345 17.125 71.9577 17.125C43.4683 17.125 20.3716 40.2217 20.3716 68.8128C20.3716 97.4039 43.4683 120.501 71.9577 120.501Z" fill="#E1F7E8"/>
<path d="M120.186 34.9312C122.49 34.9312 124.357 33.0635 124.357 30.7595C124.357 28.4556 122.49 26.5879 120.186 26.5879C117.882 26.5879 116.014 28.4556 116.014 30.7595C116.014 33.0635 117.882 34.9312 120.186 34.9312Z" fill="#F2FBF5"/>
<path d="M126.293 18.651C127.866 18.651 129.142 17.3755 129.142 15.8021C129.142 14.2286 127.866 12.9531 126.293 12.9531C124.719 12.9531 123.444 14.2286 123.444 15.8021C123.444 17.3755 124.719 18.651 126.293 18.651Z" fill="#F2FBF5"/>
<path d="M23.119 34.8287C24.6924 34.8287 25.9679 33.5532 25.9679 31.9798C25.9679 30.4064 24.6924 29.1309 23.119 29.1309C21.5455 29.1309 20.27 30.4064 20.27 31.9798C20.27 33.5532 21.5455 34.8287 23.119 34.8287Z" fill="#F2FBF5"/>
<path d="M5.72106 89.7712C8.64313 89.7712 11.0119 87.4024 11.0119 84.4803C11.0119 81.5583 8.64313 79.1895 5.72106 79.1895C2.79898 79.1895 0.430176 81.5583 0.430176 84.4803C0.430176 87.4024 2.79898 89.7712 5.72106 89.7712Z" fill="#F2FBF5"/>
<path d="M80.9081 77.1504C82.3026 77.9223 84.1596 77.3887 84.9315 75.9942C85.7035 74.5997 85.1699 72.7427 83.7754 71.9708C82.3808 71.1988 80.5239 71.7324 79.7519 73.1269C78.9248 74.621 79.4139 76.3233 80.9081 77.1504Z" fill="#AAB2C5"/>
<path d="M72.96 80.7954L71.6651 80.0786C71.8928 77.0815 69.5004 74.5859 66.5477 74.513C65.4307 74.4152 64.1927 74.7709 63.298 75.4468L62.0031 74.73C64.8081 72.2487 69.2763 72.64 71.6028 75.4895C72.6665 76.8591 73.2997 78.7713 72.96 80.7954Z" fill="#AAB2C5"/>
<path d="M60.9862 66.123C62.3807 66.895 64.2377 66.3614 65.0096 64.9669C65.7816 63.5724 65.248 61.7154 63.8535 60.9434C62.459 60.1715 60.602 60.7051 59.83 62.0996C59.1025 63.6488 59.5917 65.3511 60.9862 66.123Z" fill="#AAB2C5"/>
<path opacity="0.5" d="M94.0602 104.965C76.2429 116.009 52.8489 110.52 41.8043 92.7026C41.0656 91.5109 41.4328 89.9461 42.6245 89.2074L104.985 50.5513L106.323 52.7089C117.367 70.5262 111.878 93.9202 94.0602 104.965Z" fill="#95E0B1"/>
<path fill-rule="evenodd" clip-rule="evenodd" d="M81.8576 25.5782L85.3905 26.0079C86.5955 26.157 87.6972 25.2963 87.8431 24.0851C87.9921 22.88 87.1314 21.7783 85.9202 21.6325L71.7799 19.9125C70.5748 19.7635 69.4732 20.6242 69.3273 21.8354C69.1782 23.0404 70.039 24.1421 71.2502 24.2879L75.1214 24.7588L74.5465 29.4724L81.2825 30.2938L81.8576 25.5782Z" fill="#257042"/>
<g filter="url(#filter0_d_120_5878)">
<path d="M122.884 89.3021C126.54 59.3118 106.257 32.1654 77.5774 28.6683C48.8981 25.1712 22.6837 46.6447 19.0231 76.6376C18.8253 78.2641 20.0208 79.703 21.6472 79.9014L119.551 91.8432C121.179 92.0418 122.686 90.9298 122.884 89.3021Z" fill="#3FBD6F"/>
</g>
<path opacity="0.3" d="M73.101 30.2657C73.101 30.2657 53.5661 30.2909 39.9072 43.6089C26.2483 56.9269 23.1792 77.6814 23.1792 77.6814L31.0872 78.6426C31.0823 78.6451 31.6505 36.7154 73.101 30.2657Z" fill="url(#paint0_linear_120_5878)"/>
<defs>
<filter id="filter0_d_120_5878" x="4.33307" y="20.9607" width="133.645" height="92.9071" filterUnits="userSpaceOnUse" color-interpolation-filters="sRGB">
<feFlood flood-opacity="0" result="BackgroundImageFix"/>
<feColorMatrix in="SourceAlpha" type="matrix" values="0 0 0 0 0 0 0 0 0 0 0 0 0 0 0 0 0 0 127 0" result="hardAlpha"/>
<feOffset dy="7.3342"/>
<feGaussianBlur stdDeviation="7.3342"/>
<feColorMatrix type="matrix" values="0 0 0 0 0.397708 0 0 0 0 0.47749 0 0 0 0 0.575 0 0 0 0.27 0"/>
<feBlend mode="normal" in2="BackgroundImageFix" result="effect1_dropShadow_120_5878"/>
<feBlend mode="normal" in="SourceGraphic" in2="effect1_dropShadow_120_5878" result="shape"/>
</filter>
<linearGradient id="paint0_linear_120_5878" x1="58.2443" y1="32.154" x2="20.1042" y2="84.2159" gradientUnits="userSpaceOnUse">
<stop stop-color="#FCFCFC"/>
<stop offset="1" stop-color="#DEE1EA"/>
</linearGradient>
</defs>
</svg>
