<svg width="73" height="73" viewBox="0 0 73 73" fill="none" xmlns="http://www.w3.org/2000/svg">
<rect x="0.401855" y="0.804688" width="72.1961" height="72.1961" rx="36.098" fill="#E1F7E8"/>
<rect x="13.2017" y="13.6055" width="46.5961" height="46.5961" rx="23.298" fill="#3FBD6F"/>
<g clip-path="url(#clip0_131_19766)">
<path d="M39.1239 37.779C38.6401 37.779 38.2491 38.1709 38.2491 38.6537V42.1532C38.2491 42.6352 37.8571 43.0279 37.3742 43.0279H34.7497V29.9055C34.7497 29.1584 34.2738 28.4909 33.5582 28.2425L33.2992 28.1558H37.3742C37.8571 28.1558 38.2491 28.5486 38.2491 29.0307V31.6552C38.2491 32.138 38.6401 32.53 39.1239 32.53C39.6076 32.53 39.9987 32.138 39.9987 31.6552V29.0307C39.9987 27.5838 38.8211 26.4062 37.3742 26.4062H27.9698C27.9365 26.4062 27.9086 26.4211 27.8763 26.4255C27.8342 26.4219 27.7939 26.4062 27.7512 26.4062C26.7862 26.4062 26.0015 27.1908 26.0015 28.1558V43.9027C26.0015 44.6498 26.4774 45.3173 27.1929 45.5658L32.4578 47.3207C32.6362 47.3759 32.8137 47.4021 33.0001 47.4021C33.9651 47.4021 34.7497 46.6174 34.7497 45.6524V44.7776H37.3742C38.8211 44.7776 39.9987 43.6001 39.9987 42.1532V38.6537C39.9987 38.1709 39.6076 37.779 39.1239 37.779Z" fill="white"/>
<path d="M46.7414 34.5371L43.242 31.0378C42.9919 30.7876 42.6156 30.7123 42.2885 30.8478C41.9622 30.9835 41.7487 31.3028 41.7487 31.6563V34.2808H38.2494C37.7665 34.2808 37.3745 34.6726 37.3745 35.1555C37.3745 35.6385 37.7665 36.0303 38.2494 36.0303H41.7487V38.6548C41.7487 39.0083 41.9622 39.3276 42.2885 39.4633C42.6156 39.5988 42.9919 39.5235 43.242 39.2734L46.7414 35.774C47.0834 35.432 47.0834 34.8791 46.7414 34.5371Z" fill="white"/>
</g>
<defs>
<clipPath id="clip0_131_19766">
<rect width="20.9961" height="20.9961" fill="white" transform="translate(26.0015 26.4062)"/>
</clipPath>
</defs>
</svg>
