<svg width="14" height="14" viewBox="0 0 14 14" fill="none" xmlns="http://www.w3.org/2000/svg">
<path d="M12.1864 1.17L12.2482 1.1665L12.3241 1.17117L12.3766 1.1805L12.4483 1.20092L12.5107 1.22775L12.5691 1.261L12.6216 1.30009L12.6694 1.34384L12.6997 1.37825L12.7476 1.44592L12.7779 1.50192C12.8053 1.56025 12.8228 1.62209 12.8304 1.68625L12.8333 1.74809C12.8333 1.79184 12.8286 1.835 12.8193 1.87642L12.7989 1.94817L8.98856 12.4931C8.91633 12.6503 8.8005 12.7835 8.65481 12.8769C8.50911 12.9703 8.33969 13.0199 8.16665 13.0198C8.0108 13.0203 7.85748 12.9805 7.72162 12.9041C7.58576 12.8277 7.47199 12.7175 7.3914 12.5841L7.35348 12.51L5.39815 8.6005L1.50731 6.6545C1.36335 6.58866 1.23919 6.48617 1.14726 6.35729C1.05534 6.22841 0.998859 6.07765 0.98348 5.92009L0.97998 5.83317C0.97998 5.5065 1.15556 5.20784 1.47056 5.034L1.55223 4.99317L12.0621 1.198L12.124 1.1805L12.1864 1.17Z" fill="#3FBD6F"/>
</svg>
