<svg width="24" height="24" viewBox="0 0 24 24" fill="none" xmlns="http://www.w3.org/2000/svg">
<path d="M6.33738 5.37017L6.8919 6.20417C4.83102 7.75604 3.5 10.2221 3.5 12.9987C3.5 17.6932 7.30558 21.4987 12 21.4987C16.6944 21.4987 20.5 17.6932 20.5 12.9987C20.5 10.2221 19.1689 7.75604 17.1081 6.20418L17.6626 5.37016C19.9905 7.10089 21.5 9.87348 21.5 12.9987C21.5 18.2455 17.2467 22.4987 12 22.4987C6.75329 22.4987 2.5 18.2455 2.5 12.9987C2.5 9.87347 4.00952 7.10089 6.33738 5.37017Z" fill="#FF5247" stroke="#FF5247"/>
<path d="M11.5 9.5V2.5H12.5V9.5H11.5Z" fill="#FF5247" stroke="#FF5247"/>
</svg>
