<svg width="20" height="20" viewBox="0 0 20 20" fill="none" xmlns="http://www.w3.org/2000/svg">
<path d="M5.08218 15.8333C3.99875 15.7267 3.18713 15.4013 2.64281 14.8569C1.6665 13.8807 1.6665 12.3093 1.6665 9.16659V8.74992C1.6665 5.60722 1.6665 4.03588 2.64281 3.05956C3.61913 2.08325 5.19047 2.08325 8.33317 2.08325H11.6665C14.8092 2.08325 16.3806 2.08325 17.3568 3.05956C18.3332 4.03588 18.3332 5.60722 18.3332 8.74992V9.16659C18.3332 12.3093 18.3332 13.8807 17.3568 14.8569C16.3806 15.8333 14.8092 15.8333 11.6665 15.8333C11.1994 15.8437 10.8274 15.8792 10.462 15.9624C9.46334 16.1923 8.53859 16.7033 7.62473 17.149C6.32258 17.7839 5.6715 18.1014 5.26291 17.8042C4.48125 17.222 5.24529 15.4182 5.4165 14.5833" stroke="#161A1D" stroke-linecap="round"/>
</svg>
