<svg width="83" height="35" viewBox="0 0 83 35" fill="none" xmlns="http://www.w3.org/2000/svg">
<g filter="url(#filter0_d_2150_1401)">
<path d="M3 27.2803H6.88002H7.113V30.6067V30.7645L6.88264 30.5693L6.88002 30.6067L3 27.2803Z" fill="#257042"/>
<path d="M3 8.65277C3 4.97854 5.97855 2 9.65278 2H76.9281C79.0521 2 80.3201 4.36614 79.1439 6.13478L75.9373 10.9561C74.453 13.188 74.453 16.0926 75.9373 18.3245L79.1439 23.1458C80.3201 24.9144 79.0521 27.2806 76.9281 27.2806H3V8.65277Z" fill="#3FBD6F"/>
<path d="M19.5098 19.1875C18.873 19.1875 18.3145 19.082 17.834 18.8711C17.3574 18.6562 16.9805 18.3594 16.7031 17.9805C16.4258 17.5977 16.2656 17.1543 16.2227 16.6504L16.2168 16.5742H17.9102L17.916 16.6387C17.9551 16.9668 18.1152 17.2363 18.3965 17.4473C18.6816 17.6582 19.0527 17.7637 19.5098 17.7637C19.8105 17.7637 20.0723 17.7129 20.2949 17.6113C20.5215 17.5059 20.6953 17.3613 20.8164 17.1777C20.9414 16.9941 21.0039 16.7832 21.0039 16.5449V16.5332C21.0039 16.127 20.8594 15.8164 20.5703 15.6016C20.2852 15.3867 19.8867 15.2793 19.375 15.2793H18.4082V14.0195H19.3516C19.6484 14.0195 19.9062 13.9707 20.125 13.873C20.3438 13.7754 20.5137 13.6406 20.6348 13.4688C20.7559 13.293 20.8164 13.0918 20.8164 12.8652V12.8535C20.8164 12.6191 20.7637 12.418 20.6582 12.25C20.5566 12.0781 20.4062 11.9473 20.207 11.8574C20.0117 11.7637 19.7754 11.7168 19.498 11.7168C19.2207 11.7168 18.9766 11.7637 18.7656 11.8574C18.5547 11.9512 18.3867 12.0859 18.2617 12.2617C18.1367 12.4336 18.0625 12.6367 18.0391 12.8711L18.0332 12.9238H16.4043L16.4102 12.8535C16.4531 12.3457 16.6055 11.9062 16.8672 11.5352C17.1328 11.1602 17.4883 10.8711 17.9336 10.668C18.3828 10.4609 18.9043 10.3574 19.498 10.3574C20.1035 10.3574 20.6309 10.4531 21.0801 10.6445C21.5293 10.832 21.875 11.0957 22.1172 11.4355C22.3633 11.7715 22.4863 12.166 22.4863 12.6191V12.6309C22.4863 12.9824 22.4082 13.291 22.252 13.5566C22.0957 13.8223 21.8848 14.041 21.6191 14.2129C21.3535 14.3848 21.0547 14.5059 20.7227 14.5762V14.6113C21.3516 14.6699 21.8555 14.873 22.2344 15.2207C22.6133 15.5684 22.8027 16.0293 22.8027 16.6035V16.6152C22.8027 17.127 22.6641 17.5762 22.3867 17.9629C22.1133 18.3496 21.7305 18.6504 21.2383 18.8652C20.7461 19.0801 20.1699 19.1875 19.5098 19.1875ZM27.5723 19.2168C26.877 19.2168 26.2773 19.0371 25.7734 18.6777C25.2734 18.3145 24.8887 17.8008 24.6191 17.1367C24.3496 16.4727 24.2148 15.6855 24.2148 14.7754V14.7637C24.2148 13.8496 24.3496 13.0625 24.6191 12.4023C24.8887 11.7383 25.2734 11.2266 25.7734 10.8672C26.2773 10.5078 26.877 10.3281 27.5723 10.3281C28.2715 10.3281 28.8711 10.5078 29.3711 10.8672C29.8711 11.2266 30.2559 11.7383 30.5254 12.4023C30.7949 13.0625 30.9297 13.8496 30.9297 14.7637V14.7754C30.9297 15.6855 30.7949 16.4727 30.5254 17.1367C30.2559 17.8008 29.8711 18.3145 29.3711 18.6777C28.8711 19.0371 28.2715 19.2168 27.5723 19.2168ZM27.5723 17.8164C27.9082 17.8164 28.1914 17.6953 28.4219 17.4531C28.6562 17.2109 28.834 16.8633 28.9551 16.4102C29.0801 15.957 29.1426 15.4121 29.1426 14.7754V14.7637C29.1426 14.123 29.0801 13.5781 28.9551 13.1289C28.834 12.6758 28.6562 12.3301 28.4219 12.0918C28.1914 11.8496 27.9082 11.7285 27.5723 11.7285C27.2402 11.7285 26.957 11.8496 26.7227 12.0918C26.4922 12.3301 26.3145 12.6758 26.1895 13.1289C26.0684 13.5781 26.0078 14.123 26.0078 14.7637V14.7754C26.0078 15.4121 26.0684 15.957 26.1895 16.4102C26.3145 16.8633 26.4922 17.2109 26.7227 17.4531C26.957 17.6953 27.2402 17.8164 27.5723 17.8164ZM34.4277 15.1797C33.8105 15.1797 33.3223 14.9668 32.9629 14.541C32.6074 14.1113 32.4297 13.5312 32.4297 12.8008V12.7949C32.4297 12.0605 32.6074 11.4824 32.9629 11.0605C33.3223 10.6348 33.8105 10.4219 34.4277 10.4219C35.0488 10.4219 35.5371 10.6348 35.8926 11.0605C36.248 11.4824 36.4258 12.0605 36.4258 12.7949V12.8008C36.4258 13.5312 36.248 14.1113 35.8926 14.541C35.5371 14.9668 35.0488 15.1797 34.4277 15.1797ZM34.4277 14.2422C34.6855 14.2422 34.8828 14.1172 35.0195 13.8672C35.1602 13.6172 35.2305 13.2617 35.2305 12.8008V12.7949C35.2305 12.3301 35.1602 11.9746 35.0195 11.7285C34.8828 11.4824 34.6855 11.3594 34.4277 11.3594C34.1738 11.3594 33.9766 11.4824 33.8359 11.7285C33.6992 11.9746 33.6309 12.3301 33.6309 12.7949V12.8008C33.6309 13.2617 33.6992 13.6172 33.8359 13.8672C33.9766 14.1172 34.1738 14.2422 34.4277 14.2422ZM35.7285 19H34.375L40.0645 10.5449H41.418L35.7285 19ZM41.3594 19.123C40.7422 19.123 40.2539 18.9102 39.8945 18.4844C39.5391 18.0547 39.3613 17.4746 39.3613 16.7441V16.7383C39.3613 16.0039 39.5391 15.4258 39.8945 15.0039C40.2539 14.5781 40.7422 14.3652 41.3594 14.3652C41.9805 14.3652 42.4688 14.5781 42.8242 15.0039C43.1797 15.4258 43.3574 16.0039 43.3574 16.7383V16.7441C43.3574 17.4746 43.1797 18.0547 42.8242 18.4844C42.4688 18.9102 41.9805 19.123 41.3594 19.123ZM41.3594 18.1855C41.6172 18.1855 41.8145 18.0605 41.9512 17.8105C42.0918 17.5605 42.1621 17.2051 42.1621 16.7441V16.7383C42.1621 16.2734 42.0918 15.918 41.9512 15.6719C41.8145 15.4258 41.6172 15.3027 41.3594 15.3027C41.1055 15.3027 40.9082 15.4258 40.7676 15.6719C40.6309 15.918 40.5625 16.2734 40.5625 16.7383V16.7441C40.5625 17.2051 40.6309 17.5605 40.7676 17.8105C40.9082 18.0605 41.1055 18.1855 41.3594 18.1855ZM50.9277 19.1348C50.2676 19.1348 49.6992 19.002 49.2227 18.7363C48.7461 18.4668 48.3809 18.082 48.127 17.582C47.873 17.0781 47.7461 16.4766 47.7461 15.7773V15.7656C47.7461 15.0703 47.875 14.4727 48.1328 13.9727C48.3906 13.4727 48.7559 13.0879 49.2285 12.8184C49.7051 12.5449 50.2715 12.4082 50.9277 12.4082C51.584 12.4082 52.1484 12.543 52.6211 12.8125C53.0977 13.082 53.4648 13.4688 53.7227 13.9727C53.9805 14.4727 54.1094 15.0703 54.1094 15.7656V15.7773C54.1094 16.4766 53.9824 17.0781 53.7285 17.582C53.4746 18.082 53.1094 18.4668 52.6328 18.7363C52.1602 19.002 51.5918 19.1348 50.9277 19.1348ZM50.9277 17.793C51.2324 17.793 51.4902 17.7129 51.7012 17.5527C51.9121 17.3926 52.0742 17.1621 52.1875 16.8613C52.3008 16.5605 52.3574 16.1992 52.3574 15.7773V15.7656C52.3574 15.3438 52.3008 14.9844 52.1875 14.6875C52.0742 14.3867 51.9102 14.1562 51.6953 13.9961C51.4844 13.832 51.2285 13.75 50.9277 13.75C50.627 13.75 50.3691 13.832 50.1543 13.9961C49.9434 14.1562 49.7812 14.3867 49.668 14.6875C49.5547 14.9844 49.498 15.3438 49.498 15.7656V15.7773C49.498 16.2031 49.5527 16.5664 49.6621 16.8672C49.7754 17.168 49.9375 17.3984 50.1484 17.5586C50.3633 17.7148 50.623 17.793 50.9277 17.793ZM56.002 19V13.8379H54.959V12.5488H56.002V11.9453C56.002 11.3047 56.1758 10.8242 56.5234 10.5039C56.875 10.1797 57.4395 10.0176 58.2168 10.0176C58.3926 10.0176 58.5508 10.0234 58.6914 10.0352C58.8359 10.0469 58.9707 10.0625 59.0957 10.082V11.2246C59.041 11.2129 58.9688 11.2051 58.8789 11.2012C58.793 11.1934 58.6953 11.1895 58.5859 11.1895C58.2539 11.1895 58.0195 11.2656 57.8828 11.418C57.7461 11.5664 57.6777 11.7812 57.6777 12.0625V12.5488H59.043V13.8379H57.7129V19H56.002ZM60.959 19V13.8379H59.916V12.5488H60.959V11.9453C60.959 11.3047 61.1328 10.8242 61.4805 10.5039C61.832 10.1797 62.3965 10.0176 63.1738 10.0176C63.3496 10.0176 63.5078 10.0234 63.6484 10.0352C63.793 10.0469 63.9277 10.0625 64.0527 10.082V11.2246C63.998 11.2129 63.9258 11.2051 63.8359 11.2012C63.75 11.1934 63.6523 11.1895 63.543 11.1895C63.2109 11.1895 62.9766 11.2656 62.8398 11.418C62.7031 11.5664 62.6348 11.7812 62.6348 12.0625V12.5488H64V13.8379H62.6699V19H60.959Z" fill="white"/>
</g>
<defs>
<filter id="filter0_d_2150_1401" x="0.338889" y="0.669445" width="81.916" height="34.0869" filterUnits="userSpaceOnUse" color-interpolation-filters="sRGB">
<feFlood flood-opacity="0" result="BackgroundImageFix"/>
<feColorMatrix in="SourceAlpha" type="matrix" values="0 0 0 0 0 0 0 0 0 0 0 0 0 0 0 0 0 0 127 0" result="hardAlpha"/>
<feOffset dy="1.33056"/>
<feGaussianBlur stdDeviation="1.33056"/>
<feColorMatrix type="matrix" values="0 0 0 0 0 0 0 0 0 0 0 0 0 0 0 0 0 0 0.1 0"/>
<feBlend mode="normal" in2="BackgroundImageFix" result="effect1_dropShadow_2150_1401"/>
<feBlend mode="normal" in="SourceGraphic" in2="effect1_dropShadow_2150_1401" result="shape"/>
</filter>
</defs>
</svg>
