<svg width="24" height="24" viewBox="0 0 24 24" fill="none" xmlns="http://www.w3.org/2000/svg">
<g clip-path="url(#clip0_131_19239)">
<path d="M0 12.0005C0 16.3466 2.31061 20.1529 5.77039 22.2587V1.74219C2.31061 3.84761 0 7.65413 0 12.0005Z" fill="#F3F4F5"/>
<path d="M12 0C12 0 16.4556 16.351 16.6396 16.535C17.853 16.4262 19.041 15.9288 20.0007 15.0332C20.7713 14.3138 21.2959 13.4289 21.5724 12.4861C21.5021 14.2295 20.7728 15.9471 19.3964 17.2315C18.4518 18.1133 17.324 18.6766 16.1455 18.9271L12 23.9998C18.6276 23.9998 24.0001 18.6273 24.0001 12.0001C24.0001 5.37212 18.6276 0 12 0Z" fill="#036535"/>
<path d="M11.6102 23.9937C11.5814 23.9929 11.5523 23.9914 11.5234 23.9902C11.5525 23.9916 11.5813 23.9929 11.6102 23.9937Z" fill="#036535"/>
<path d="M11.5234 0.0108404C11.5523 0.00967968 11.5814 0.00856946 11.6102 0.0078125C11.5812 0.00856946 11.5524 0.00967968 11.5234 0.0108404Z" fill="#036535"/>
<path d="M19.3955 17.2317C20.772 15.9473 21.5011 14.2297 21.5714 12.4863C21.295 13.4294 20.7703 14.314 19.9997 15.0334C19.0401 15.9291 17.8521 16.4264 16.6387 16.5352C16.5108 17.3738 16.3465 18.1783 16.1445 18.9273C17.323 18.6768 18.4507 18.1135 19.3955 17.2317Z" fill="#F3F4F5"/>
<path d="M11.6094 0.00701453C11.7384 0.00302786 11.8679 0 11.9978 0C11.869 0 11.7396 0.00302786 11.6094 0.00701453Z" fill="#263778"/>
<path d="M11.9978 23.9988C11.8678 23.9988 11.7384 23.9961 11.6094 23.9922C11.7396 23.9964 11.869 23.9988 11.9978 23.9988Z" fill="#263778"/>
<path d="M16.1443 18.927C13.8642 19.4119 11.3935 18.7243 9.68727 16.8957C7.09886 14.1222 7.24894 9.77604 10.0223 7.18783C11.3986 5.90321 13.1622 5.29405 14.9059 5.34407C13.9461 5.55455 13.0275 6.01691 12.2567 6.73632C9.96558 8.87455 9.84169 12.4652 11.9799 14.7564C13.2223 16.0874 14.955 16.6856 16.6385 16.5349C17.7124 9.48996 16.1665 0 11.9988 0C11.8688 0 11.7395 0.00302786 11.6104 0.00701453C11.5816 0.0077715 11.5524 0.00893218 11.5236 0.0100424C9.42198 0.0920973 7.45867 0.713918 5.76953 1.74182V22.2584C7.45867 23.2861 9.42183 23.9081 11.5236 23.99C11.5524 23.9911 11.5816 23.9926 11.6104 23.9934C11.7395 23.9974 11.8688 24 11.9988 24C13.9626 23.9998 15.3444 21.8927 16.1443 18.927Z" fill="#0C723E"/>
<path d="M11.9799 14.7569C9.84171 12.4658 9.96565 8.87512 12.2567 6.7369C13.0275 6.01748 13.9461 5.55518 14.906 5.34464C13.1622 5.29463 11.3984 5.90379 10.0223 7.1884C7.24876 9.77662 7.09868 14.1227 9.68709 16.8963C11.3933 18.7247 13.864 19.4123 16.1441 18.9276C16.3461 18.1786 16.5106 17.3741 16.6383 16.5355C14.955 16.6861 13.2221 16.0882 11.9799 14.7569Z" fill="#F3F4F5"/>
<path d="M17.8836 6.92969L18.8724 8.05837L20.2518 7.46668L19.4835 8.75604L20.4727 9.88508L19.0088 9.55312L18.2407 10.8423L18.1039 9.34814L16.6406 9.01578L18.02 8.42409L17.8836 6.92969Z" fill="#F3F4F5"/>
</g>
<defs>
<clipPath id="clip0_131_19239">
<rect width="24" height="24" fill="white"/>
</clipPath>
</defs>
</svg>
