<svg width="15" height="14" viewBox="0 0 15 14" fill="none" xmlns="http://www.w3.org/2000/svg">
<path d="M10.75 6.99984H6.08333C5.76117 6.99984 5.5 6.73868 5.5 6.4165V1.74984C5.5 1.42767 5.76117 1.1665 6.08333 1.1665H10.75C11.0722 1.1665 11.3333 1.42767 11.3333 1.74984V6.4165C11.3333 6.73868 11.0722 6.99984 10.75 6.99984Z" stroke="#595961" stroke-linecap="round" stroke-linejoin="round"/>
<path d="M7.8335 2.9165H9.00016" stroke="#595961" stroke-linecap="round" stroke-linejoin="round"/>
<path d="M2.5835 8.1665H4.0338C4.23041 8.1665 4.42382 8.2162 4.59608 8.31094L5.79183 8.96865H6.37516C7.25016 8.96865 7.8335 9.63884 7.8335 10.2081L6.26795 10.7299C6.14825 10.7698 6.01877 10.7698 5.89903 10.7299L4.3335 10.2081M7.83309 9.9165L10.2895 9.09768C10.8755 8.90238 11.5122 9.19766 11.7417 9.7712C11.8404 10.0182 11.7334 10.2997 11.4955 10.4186L7.07079 12.631C6.81062 12.7611 6.51131 12.7893 6.23143 12.7101L2.5835 11.6781" stroke="#595961" stroke-linecap="round" stroke-linejoin="round"/>
</svg>
