<svg width="81" height="87" viewBox="0 0 81 87" fill="none" xmlns="http://www.w3.org/2000/svg">
<path d="M40.4999 0C27.5271 0 12.3916 7.928 12.3916 28.1083C12.3916 41.8016 34.0135 72.072 40.4999 80C46.2657 72.072 68.6081 42.5227 68.6081 28.1083C68.6081 7.928 53.4727 0 40.4999 0Z" fill="#3FBD6F"/>
<g clip-path="url(#clip0_298_79)">
<path d="M63.7935 0.936421L63.5628 0.70689C62.6217 -0.236704 61.0934 -0.235532 60.1522 0.70689L46.5803 14.2788C44.2049 16.6542 42.6228 16.1648 40.4549 15.9096C37.7632 15.5935 35.8638 15.6728 32.0674 19.4985C32.0674 19.4985 27.6839 23.8809 25.2046 26.3601C23.1331 28.4317 26.0835 31.5261 28.2027 29.4057L35.3902 22.2195C35.8492 21.7605 36.5938 21.7605 37.0528 22.2182L37.2737 22.4404C37.7339 22.9006 37.7339 23.644 37.2737 24.103L30.0545 31.3235C28.8704 32.5063 29.3135 33.6574 30.0764 34.4216C30.8406 35.187 31.9929 35.6301 33.1771 34.4448L40.3963 27.2256C40.8553 26.7666 41.5999 26.7666 42.0589 27.2256L42.2798 27.4465C42.74 27.9067 42.7388 28.6501 42.2798 29.1103L35.0935 36.2966C32.9732 38.417 36.0677 41.3674 38.1392 39.2946C40.6196 36.8154 45.002 32.4331 45.002 32.4331C48.8264 28.6367 48.9058 26.7373 48.5884 24.0444C48.3332 21.8764 47.8462 20.2956 50.2217 17.9201L63.7935 4.3483C64.7347 3.40595 64.7347 1.87884 63.7935 0.936421Z" fill="#E7E7EA"/>
</g>
<g clip-path="url(#clip1_298_79)">
<path fill-rule="evenodd" clip-rule="evenodd" d="M49.7457 43.9258C46.3866 40.3193 40.3221 40.5081 36.2007 44.3467C32.8153 47.4999 31.7328 52.1753 33.3228 55.7379L20.022 68.1263C18.9922 69.0855 18.9349 70.6981 19.8932 71.7288L19.8949 71.7307C20.8551 72.7597 22.4677 72.817 23.4975 71.8578L36.7983 59.4693C40.2391 61.3081 44.9795 60.56 48.3649 57.4068C52.4863 53.5681 53.1048 47.5322 49.7457 43.9258Z" fill="#E7E7EA"/>
</g>
<defs>
<clipPath id="clip0_298_79">
<rect width="40" height="40" fill="white" transform="translate(24.5)"/>
</clipPath>
<clipPath id="clip1_298_79">
<rect width="40.7944" height="40.7944" fill="white" transform="translate(35.8438 29) rotate(47.034)"/>
</clipPath>
</defs>
</svg>
