<svg width="65" height="64" viewBox="0 0 65 64" fill="none" xmlns="http://www.w3.org/2000/svg">
<g clip-path="url(#clip0_144_16083)">
<path d="M64.5 32C64.5 40.9561 60.8206 49.0514 54.8921 54.861C49.1204 60.514 41.2184 64 32.5 64C22.7511 64 14.0196 59.6401 8.15 52.7634C3.38 47.1759 0.5 39.923 0.5 32C0.5 24.9574 2.77525 18.4451 6.631 13.1605C7.39863 12.1075 8.23002 11.1026 9.1205 10.1512C14.9601 3.904 23.2735 0 32.5 0C36.404 0 40.1447 0.69875 43.6034 1.98012C47.0855 3.26662 50.2816 5.1435 53.0728 7.48938C60.0591 13.359 64.5 22.161 64.5 32Z" fill="#E1F7E8"/>
<path d="M34.2829 36.7161V34.0867H35.5655C36.2748 34.0867 36.8482 33.5121 36.8482 32.8041C36.8482 32.0961 36.2748 31.5215 35.5655 31.5215H30.4351C29.7258 31.5215 29.1525 32.0961 29.1525 32.8041C29.1525 33.5121 29.7258 34.0867 30.4351 34.0867H31.7177V36.7161C18.8582 37.3869 8.63062 47.9954 8.63062 61.0216C8.63062 62.3338 8.76401 63.6125 8.96281 64.8695H57.0365C57.2366 63.6125 57.3687 62.3338 57.3687 61.0216C57.3687 47.9954 47.1424 37.3882 34.2829 36.7161Z" fill="#3FBD6F"/>
<path d="M33.6214 36.681C44.3979 39.9657 52.2398 49.9791 52.2398 61.8292C52.2398 62.8617 52.1462 63.8686 52.0218 64.8664H57.0368C57.2369 63.6095 57.369 62.3307 57.369 61.0186C57.369 47.7692 46.79 37.0132 33.6201 36.6797L33.6214 36.681Z" fill="#3FBD6F"/>
<path opacity="0.5" d="M18.2614 49.9373C17.9703 49.9373 17.6791 49.8385 17.438 49.6372C16.8955 49.1818 16.8236 48.3725 17.279 47.83C18.6257 46.2254 20.2046 44.8402 21.9733 43.7128C23.7421 42.5866 25.6647 41.7401 27.6887 41.1988C28.3736 41.0141 29.0777 41.4207 29.2599 42.1056C29.4433 42.7906 29.0367 43.4934 28.3531 43.6769C26.5818 44.1514 24.899 44.8915 23.3521 45.8765C21.8053 46.8629 20.4239 48.0749 19.2465 49.4794C18.9925 49.7821 18.6296 49.9373 18.2614 49.9373ZM14.9202 55.7245C14.7753 55.7245 14.6265 55.6988 14.4816 55.6462C13.8146 55.4051 13.4722 54.6676 13.7146 54.0032C13.8569 53.6094 14.0121 53.2221 14.1789 52.8373C14.3469 52.4551 14.5239 52.0767 14.7124 51.7047C15.0331 51.0737 15.8078 50.8197 16.4376 51.143C17.0686 51.4636 17.32 52.237 16.9993 52.8681C16.8326 53.1951 16.6761 53.5261 16.5312 53.8621C16.385 54.1969 16.249 54.5355 16.1246 54.8792C15.9361 55.4 15.4435 55.7245 14.9202 55.7245Z" fill="white"/>
<path d="M57.3703 62.3027H8.63091C7.21417 62.3027 6.06567 63.4512 6.06567 64.868C6.06567 66.2847 7.21417 67.4332 8.63091 67.4332H57.3703C58.787 67.4332 59.9355 66.2847 59.9355 64.868C59.9355 63.4512 58.787 62.3027 57.3703 62.3027Z" fill="#3FBD6F"/>
<path d="M57.3701 62.3027H50.957C52.3743 62.3027 53.5223 63.4507 53.5223 64.868C53.5223 66.2853 52.3743 67.4332 50.957 67.4332H57.3701C58.7874 67.4332 59.9353 66.2853 59.9353 64.868C59.9353 63.4507 58.7874 62.3027 57.3701 62.3027Z" fill="#3FBD6F"/>
<path d="M33.0003 25.5615L29.0511 26.9659C28.2021 27.2674 27.3145 26.6235 27.3389 25.7218L27.4543 21.5315L24.898 18.2095C24.3491 17.4951 24.6877 16.4523 25.5522 16.1971L29.5719 15.012L31.9409 11.554C32.4501 10.8101 33.548 10.8101 34.0572 11.554L36.4262 15.012L40.4459 16.1971C41.3104 16.4523 41.649 17.4951 41.1 18.2095L38.5438 21.5315L38.6592 25.7218C38.6836 26.6222 37.796 27.2674 36.9469 26.9659L32.9978 25.5615H33.0003ZM13.3904 32.5902L10.0864 33.7651C9.2373 34.0665 8.34973 33.4226 8.3741 32.521L8.4703 29.0156L6.33218 26.2361C5.78322 25.5217 6.12183 24.4789 6.98631 24.2237L10.3493 23.2322L12.3323 20.3399C12.8415 19.596 13.9394 19.596 14.4486 20.3399L16.4315 23.2322L19.7945 24.2237C20.659 24.4789 20.9976 25.5217 20.4486 26.2361L18.3105 29.0156L18.4067 32.521C18.4311 33.4213 17.5435 34.0665 16.6944 33.7651L13.3904 32.5902ZM52.1806 32.7428L49.3062 33.7651C48.4571 34.0665 47.5696 33.4226 47.5939 32.521L47.6901 29.0156L45.552 26.2361C45.003 25.5217 45.3417 24.4789 46.2061 24.2237L49.5692 23.2322L51.5521 20.3399C52.0613 19.596 53.1592 19.596 53.6684 20.3399L55.6513 23.2322L59.0143 24.2237C59.8788 24.4789 60.2174 25.5217 59.6685 26.2361L57.5303 29.0156L57.6265 32.521C57.6509 33.4213 56.7633 34.0665 55.9143 33.7651L53.0399 32.7428C52.7616 32.6441 52.4589 32.6441 52.1806 32.7428Z" fill="#3FBD6F"/>
<path opacity="0.75" d="M19.7927 24.2246L17.7918 23.6346C17.2608 27.3657 14.0607 30.2375 10.182 30.2375C9.58304 30.2375 9.00202 30.1618 8.44152 30.0323L8.37354 32.5205C8.34917 33.4209 9.23674 34.0661 10.0858 33.7647L13.3898 32.5898L16.6939 33.7647C17.543 34.0661 18.4305 33.4222 18.4062 32.5205L18.31 29.0152L20.4481 26.2357C20.997 25.5213 20.6584 24.4785 19.7939 24.2233L19.7927 24.2246ZM59.0138 24.2246L57.0129 23.6346C56.4819 27.3657 53.2818 30.2375 49.4031 30.2375C48.8029 30.2375 48.2231 30.1618 47.6626 30.0323L47.5946 32.5205C47.5703 33.4209 48.4578 34.0661 49.3069 33.7647L52.611 32.5898L55.915 33.7647C56.7641 34.0661 57.6516 33.4222 57.6273 32.5205L57.5311 29.0152L59.6692 26.2357C60.2181 25.5213 59.8795 24.4785 59.0151 24.2233L59.0138 24.2246ZM40.4479 16.1993L38.1289 15.5156C38.1135 20.1074 34.3888 23.8257 29.7932 23.8257C28.9608 23.8257 28.1592 23.7 27.4011 23.473L27.3396 25.7227C27.3152 26.6231 28.2028 27.2682 29.0519 26.9668L33.001 25.5624L36.9502 26.9668C37.7993 27.2682 38.6869 26.6244 38.6625 25.7227L38.5471 21.5324L41.1033 18.2104C41.6523 17.496 41.3137 16.4532 40.4492 16.198L40.4479 16.1993Z" fill="#3FBD6F"/>
</g>
<defs>
<clipPath id="clip0_144_16083">
<path d="M0.5 32C0.5 14.3269 14.8269 0 32.5 0C50.1731 0 64.5 14.3269 64.5 32C64.5 49.6731 50.1731 64 32.5 64C14.8269 64 0.5 49.6731 0.5 32Z" fill="white"/>
</clipPath>
</defs>
</svg>
