<svg width="21" height="20" viewBox="0 0 21 20" fill="none" xmlns="http://www.w3.org/2000/svg">
<path d="M15.8624 10.9723H16.0906C16.3181 10.9723 16.5024 10.788 16.5024 10.5605V10.138C16.5024 9.91047 16.3181 9.72609 16.0906 9.72609C16.0342 9.72616 15.979 9.70975 15.9318 9.67889C15.8846 9.64802 15.8475 9.60404 15.8249 9.55234L14.9827 7.62609C15.0096 7.62797 15.9977 7.63109 15.9977 7.63109C16.1576 7.63093 16.3108 7.56736 16.4238 7.45435C16.5368 7.34134 16.6004 7.18811 16.6006 7.02828V6.06141C16.6004 5.90158 16.5368 5.74835 16.4238 5.63534C16.3108 5.52232 16.1576 5.45876 15.9977 5.45859H15.0631C14.7618 5.45859 14.4831 5.58859 14.2793 5.80359C14.0844 5.80638 13.8985 5.88567 13.7616 6.02434C13.6246 6.16302 13.5477 6.34996 13.5474 6.54484C13.5474 6.81703 13.6965 7.05297 13.9156 7.18203C13.9156 7.35359 13.9456 7.52453 14.0127 7.68453C15.1681 10.4345 13.6456 12.1736 13.1809 12.6189C13.104 12.6927 13.0043 12.7327 12.7443 12.7327H10.1249C10.0722 12.7332 10.02 12.7233 9.97111 12.7036C9.92226 12.6838 9.87778 12.6546 9.84024 12.6177C8.95399 11.722 9.28837 11.0027 9.61899 10.6164C9.7743 10.4352 9.99243 10.3308 10.2249 10.2764C10.4749 10.218 10.6599 10.0795 10.7952 9.92266C11.0221 9.65953 10.8231 9.25016 10.4759 9.25016H8.57712V6.08391H2.7293V8.93766C2.7293 9.28234 3.00962 9.56266 3.3543 9.56266H5.4393C3.77087 10.2395 2.8443 11.8614 2.45305 12.7355C2.36055 12.9423 2.43555 13.3142 2.69243 13.3142H8.01493C8.0993 13.3142 8.1818 13.3402 8.25118 13.3886L8.89774 13.8414C8.96712 13.8898 9.0493 13.9158 9.13399 13.9158H13.0634C13.1868 13.9158 13.304 13.8605 13.3821 13.7648L15.544 11.1233C15.6221 11.0277 15.739 10.9723 15.8624 10.9723ZM7.32712 3.98828H3.9793C2.59055 3.98828 2.7293 5.45922 2.7293 5.45922H8.57712C8.57712 5.45922 8.74805 3.98828 7.32712 3.98828ZM17.0346 13.5955C17.0912 13.6892 17.1259 13.7983 17.1259 13.9158C17.1266 14.053 17.0818 14.1867 16.9986 14.2958C16.9153 14.4049 16.7982 14.4833 16.6657 14.5189C16.5331 14.5544 16.3925 14.545 16.2658 14.4921C16.1391 14.4393 16.0336 14.3459 15.9656 14.2267C15.8886 14.2487 15.809 14.2605 15.729 14.2617H14.4381C14.6037 15.253 15.4652 16.0117 16.5031 16.0117C17.0586 16.0111 17.5913 15.7901 17.9842 15.3972C18.377 15.0043 18.598 14.4717 18.5987 13.9161C18.5987 13.8083 18.5887 13.7014 18.5724 13.5958H17.0349L17.0346 13.5955ZM5.48024 14.5389C5.31928 14.5388 5.16464 14.4762 5.04889 14.3643C4.93313 14.2525 4.86528 14.1001 4.85962 13.9392H3.38555C3.39837 15.0839 4.33243 16.0114 5.48024 16.0114C6.62805 16.0114 7.56212 15.0836 7.57462 13.9392H6.10087C6.09512 14.1001 6.02725 14.2524 5.91151 14.3642C5.79577 14.4761 5.64118 14.5387 5.48024 14.5389ZM17.3368 10.9723H17.0415C16.7459 11.6955 15.9637 11.5973 15.9637 11.5973L14.2946 13.6367H15.729C15.7984 13.6367 15.8656 13.6117 15.9184 13.5664L16.5287 13.0408C16.5813 12.9954 16.6485 12.9704 16.7181 12.9705H18.7921C18.9649 12.9705 19.1046 12.8189 19.0812 12.6477C18.8974 11.308 17.3543 10.9723 17.3368 10.9723Z" fill="#696A71"/>
</svg>
