<svg width="14" height="17" viewBox="0 0 14 17" fill="none" xmlns="http://www.w3.org/2000/svg">
<path d="M6.90137 0.452354C6.9139 0.465802 6.92906 0.476526 6.94592 0.483858C6.96277 0.491191 6.98096 0.494975 6.99934 0.494975C7.01772 0.494975 7.0359 0.491191 7.05275 0.483858C7.06961 0.476526 7.08477 0.465802 7.0973 0.452354C7.43855 0.0857917 8.15262 0.198448 8.41762 0.580167C8.87652 1.24532 8.55824 2.25517 7.14215 2.80407C7.05024 2.83923 6.94859 2.83923 6.85668 2.80407C5.44074 2.25517 5.1223 1.24532 5.5834 0.580167C5.84637 0.198448 6.56027 0.0857917 6.90137 0.452354ZM9.75293 7.08142H2.87277C2.81871 7.08142 2.76687 7.05994 2.72864 7.02172C2.69042 6.98349 2.66895 6.93165 2.66895 6.87759C2.66895 6.82353 2.69042 6.77169 2.72864 6.73346C2.76687 6.69523 2.81871 6.67376 2.87277 6.67376H9.75293C9.80699 6.67376 9.85883 6.69523 9.89706 6.73346C9.93528 6.77169 9.95676 6.82353 9.95676 6.87759C9.95676 6.93165 9.93528 6.98349 9.89706 7.02172C9.85883 7.05994 9.80699 7.08142 9.75293 7.08142Z" fill="#696A71"/>
<path d="M12.4421 7.15735C12.4163 7.09078 12.0358 4.57125 11.7389 3.95281C11.6566 3.78094 11.5411 3.54031 11.3382 3.48406C11.2566 3.47184 11.1735 3.47704 11.0941 3.49931C11.0148 3.52159 10.9411 3.56043 10.8778 3.61328C10.8531 3.63203 10.8224 3.64103 10.7914 3.63855C10.7605 3.63607 10.7316 3.62229 10.7102 3.59985C10.6396 3.53002 10.5521 3.4797 10.4562 3.45382C10.3604 3.42794 10.2594 3.42738 10.1633 3.45219C10.069 3.48473 9.98339 3.53863 9.91331 3.60969C9.88873 3.62826 9.859 3.63875 9.82821 3.6397C9.79743 3.64065 9.7671 3.63202 9.74143 3.615C9.61631 3.49336 9.44979 3.42359 9.27534 3.41969C9.10744 3.41546 8.94361 3.47175 8.81378 3.57828C8.77049 3.61919 8.71366 3.64274 8.65413 3.64444C8.59459 3.64615 8.53651 3.62588 8.49096 3.5875C8.36519 3.48606 8.20863 3.43046 8.04706 3.42985C7.86437 3.43724 7.6875 3.49617 7.5369 3.59985C7.51374 3.61432 7.48673 3.62138 7.45945 3.6201C7.43217 3.61882 7.40594 3.60924 7.38424 3.59266C7.21899 3.47256 7.01824 3.41133 6.81409 3.41875C6.70349 3.41395 6.59305 3.43128 6.48924 3.46973C6.38543 3.50818 6.29034 3.56697 6.20956 3.64266C6.18509 3.66506 6.15326 3.67772 6.12009 3.67824C6.08692 3.67875 6.05471 3.6671 6.02956 3.64547C5.88932 3.51378 5.70281 3.4427 5.51049 3.44766C5.3545 3.44779 5.20349 3.50264 5.08378 3.60266C5.05866 3.62225 5.02764 3.63273 4.99579 3.63239C4.96394 3.63204 4.93315 3.6209 4.90846 3.60078C4.7596 3.47859 4.57177 3.41399 4.37924 3.41875C4.27697 3.41689 4.17535 3.43549 4.08036 3.47346C3.98537 3.51143 3.89893 3.568 3.82612 3.63985C3.802 3.66375 3.76978 3.67774 3.73585 3.67904C3.70191 3.68034 3.66872 3.66887 3.64284 3.64688C3.52909 3.54478 3.3878 3.47843 3.23659 3.4561C3.07926 3.43486 2.91953 3.47081 2.78647 3.55742C2.65341 3.64402 2.55587 3.77551 2.51159 3.92797C2.38659 4.37219 2.31112 5.26891 2.23034 5.92031C2.15221 6.55578 2.06143 6.88125 1.91284 7.16906C0.376588 10.1455 0.187682 13.6105 0.298619 15.9939C0.307836 16.1942 0.393992 16.3832 0.539129 16.5215C0.684265 16.6598 0.877186 16.7368 1.07768 16.7364H12.7549C12.9488 16.7357 13.1355 16.6629 13.2787 16.5321C13.4219 16.4013 13.5114 16.222 13.5297 16.0289C13.7033 14.0141 13.4783 9.8011 12.4421 7.15735ZM7.39862 10.3584L6.72221 11.0348C6.64604 11.1115 6.5555 11.1724 6.45576 11.2141C6.35602 11.2557 6.24904 11.2773 6.14096 11.2775C6.02154 11.2765 5.90393 11.2482 5.79721 11.1945L5.54253 11.4492L6.61253 12.5191C6.68681 12.5933 6.72855 12.6941 6.72856 12.7991C6.72857 12.9041 6.68686 13.0049 6.6126 13.0791C6.53834 13.1534 6.43762 13.1952 6.33258 13.1952C6.22755 13.1952 6.12681 13.1535 6.05253 13.0792L5.10409 12.1308L4.16659 13.0683C4.12998 13.1057 4.08632 13.1354 4.03814 13.1559C3.98995 13.1763 3.9382 13.1869 3.88587 13.1872C3.83354 13.1875 3.78168 13.1774 3.73328 13.1575C3.68488 13.1376 3.64091 13.1083 3.60391 13.0713C3.5669 13.0343 3.53761 12.9903 3.51771 12.9419C3.49781 12.8935 3.48771 12.8416 3.48799 12.7893C3.48827 12.737 3.49892 12.6852 3.51933 12.637C3.53974 12.5889 3.56951 12.5452 3.6069 12.5086L4.65268 11.4628L4.42206 11.2311C4.39071 11.2448 4.35838 11.2562 4.32534 11.2652C4.13119 11.3181 3.92622 11.3168 3.7328 11.2612C3.53937 11.2057 3.36491 11.0981 3.22846 10.9502C3.079 10.7942 2.97126 10.6031 2.91518 10.3945C2.87852 10.2536 2.87933 10.1056 2.91755 9.96507C2.95576 9.82457 3.03004 9.6965 3.13302 9.59357C3.236 9.49063 3.36411 9.41641 3.50462 9.37826C3.64514 9.34012 3.79319 9.33937 3.93409 9.3761C4.14258 9.43201 4.33365 9.53947 4.48971 9.6886C4.63704 9.8255 4.74424 10 4.79978 10.1933C4.85531 10.3866 4.85707 10.5914 4.80487 10.7856C4.79342 10.8269 4.7782 10.867 4.7594 10.9055L5.03143 11.1781C5.073 11.1745 5.11477 11.1739 5.15643 11.1763C5.15987 11.1725 5.46221 10.8664 5.46221 10.8664C5.38455 10.714 5.35742 10.5408 5.38475 10.3719C5.41208 10.203 5.49246 10.0472 5.61424 9.92703L6.29081 9.25047C6.31243 9.22809 6.33829 9.21023 6.36688 9.19795C6.39548 9.18566 6.42623 9.1792 6.45735 9.17893C6.48847 9.17866 6.51934 9.18459 6.54814 9.19637C6.57694 9.20816 6.60311 9.22556 6.62512 9.24757C6.64712 9.26957 6.66453 9.29574 6.67631 9.32454C6.6881 9.35335 6.69403 9.38421 6.69376 9.41533C6.69349 9.44645 6.68702 9.47721 6.67474 9.5058C6.66245 9.5344 6.6446 9.56026 6.62221 9.58188L5.94565 10.2583C5.91301 10.2867 5.88656 10.3215 5.86795 10.3606C5.84933 10.3997 5.83894 10.4422 5.83743 10.4854C5.83592 10.5287 5.84332 10.5718 5.85916 10.612C5.875 10.6523 5.89896 10.6889 5.92953 10.7195C5.96011 10.7502 5.99666 10.7742 6.0369 10.7901C6.07715 10.806 6.12024 10.8135 6.16349 10.812C6.20675 10.8106 6.24925 10.8003 6.28835 10.7817C6.32746 10.7632 6.36233 10.7368 6.39081 10.7042L7.06721 10.0277C7.08898 10.0059 7.11483 9.98864 7.14327 9.97687C7.17171 9.96509 7.20219 9.95904 7.23297 9.95904C7.26375 9.95905 7.29423 9.96512 7.32267 9.97691C7.3511 9.98869 7.37694 10.006 7.3987 10.0277C7.42046 10.0495 7.43772 10.0754 7.44949 10.1038C7.46126 10.1322 7.46732 10.1627 7.46731 10.1935C7.4673 10.2243 7.46123 10.2548 7.44945 10.2832C7.43766 10.3116 7.42039 10.3375 7.39862 10.3592V10.3584ZM7.01049 9.63875C7.05443 9.6827 7.07912 9.74231 7.07912 9.80446C7.07912 9.8666 7.05443 9.92621 7.01049 9.97016L6.58456 10.3959C6.56294 10.4183 6.53707 10.4362 6.50848 10.4485C6.47988 10.4607 6.44913 10.4672 6.41801 10.4675C6.38689 10.4678 6.35603 10.4618 6.32722 10.45C6.29842 10.4383 6.27225 10.4209 6.25025 10.3988C6.22824 10.3768 6.21084 10.3507 6.19905 10.3219C6.18727 10.2931 6.18134 10.2622 6.18161 10.2311C6.18188 10.2 6.18834 10.1692 6.20063 10.1406C6.21291 10.112 6.23077 10.0862 6.25315 10.0645L6.67909 9.63875C6.72304 9.59481 6.78264 9.57013 6.84479 9.57013C6.90694 9.57013 6.96654 9.59481 7.01049 9.63875ZM7.85018 5.98703C7.81235 6.02521 7.76733 6.0555 7.71771 6.07616C7.66809 6.09681 7.61486 6.10741 7.56112 6.10735H5.38768C5.27955 6.10726 5.17587 6.06427 5.09941 5.98781C5.02294 5.91135 4.97995 5.80767 4.97987 5.69953C4.97961 5.68961 4.98013 5.67969 4.98143 5.66985C4.98763 5.57214 5.02996 5.48024 5.10018 5.41203C5.13761 5.37376 5.18235 5.34339 5.23173 5.32273C5.28112 5.30206 5.33415 5.29152 5.38768 5.29172H7.56112C7.66416 5.29147 7.76345 5.33039 7.83888 5.4006C7.9143 5.4708 7.96024 5.56705 7.96737 5.66985C7.96867 5.67969 7.96919 5.68961 7.96893 5.69953C7.96906 5.75292 7.95864 5.8058 7.93826 5.85514C7.91788 5.90448 7.88795 5.9493 7.85018 5.98703ZM13.0627 15.9886C13.0551 16.065 13.0194 16.1359 12.9625 16.1875C12.9056 16.2391 12.8315 16.2676 12.7547 16.2677H9.82643C9.79156 16.2679 9.7579 16.2549 9.7323 16.2312C9.7067 16.2075 9.69108 16.1749 9.68862 16.1402C9.60034 14.8508 9.38128 10.1969 10.5625 7.35063C10.6809 7.06877 10.7578 6.77125 10.791 6.46735C10.8439 5.95531 10.9507 4.92563 10.9472 4.34406C10.949 4.30463 10.9658 4.26736 10.9941 4.23985C11.0556 4.16459 11.1409 4.11247 11.236 4.09203C11.2541 4.0937 11.2714 4.10055 11.2858 4.11177C11.3002 4.12299 11.311 4.1381 11.3171 4.15531C11.5836 4.71031 11.7505 5.81688 11.861 6.54906C11.8886 6.81213 11.9371 7.07259 12.006 7.32797C12.9707 9.79047 13.2397 13.9398 13.0627 15.9886Z" fill="#696A71"/>
</svg>
