<svg width="21" height="20" viewBox="0 0 21 20" fill="none" xmlns="http://www.w3.org/2000/svg">
<path d="M15.3846 17.6545H14.4174C14.5906 17.4639 14.6873 17.2161 14.6888 16.9586C14.6888 16.3811 13.645 15.2191 13.645 15.2191C13.645 15.2191 12.6013 16.3811 12.6013 16.9586C12.6028 17.2161 12.6995 17.4639 12.8727 17.6545H10.9383C11.1115 17.4639 11.2081 17.2161 11.2096 16.9586C11.2096 16.3811 10.1659 15.2191 10.1659 15.2191C10.1659 15.2191 9.12215 16.3811 9.12215 16.9586C9.12368 17.2161 9.22034 17.4639 9.39352 17.6545H7.45912C7.63231 17.4639 7.72896 17.2161 7.73049 16.9586C7.73049 16.3811 6.68675 15.2191 6.68675 15.2191C6.68675 15.2191 5.643 16.3811 5.643 16.9586C5.64454 17.2161 5.74119 17.4639 5.91438 17.6545H4.94717C4.8549 17.6545 4.76641 17.6911 4.70116 17.7564C4.63591 17.8216 4.59926 17.9101 4.59926 18.0024C4.59926 18.0947 4.63591 18.1832 4.70116 18.2484C4.76641 18.3136 4.8549 18.3503 4.94717 18.3503H15.3846C15.4769 18.3503 15.5654 18.3136 15.6306 18.2484C15.6959 18.1832 15.7325 18.0947 15.7325 18.0024C15.7325 17.9101 15.6959 17.8216 15.6306 17.7564C15.5654 17.6911 15.4769 17.6545 15.3846 17.6545ZM4.25134 6.86911V11.0441C4.25134 11.7823 4.54458 12.4902 5.06656 13.0122C5.58853 13.5342 6.29648 13.8274 7.03466 13.8274H13.2971C14.0353 13.8274 14.7433 13.5342 15.2652 13.0122C15.7872 12.4902 16.0804 11.7823 16.0804 11.0441V6.86911H4.25134ZM2.47698 7.18224C2.35364 7.30311 2.26112 7.45183 2.20721 7.61589C2.15331 7.77995 2.13958 7.95456 2.1672 8.12503C2.19482 8.2955 2.26296 8.45685 2.36591 8.5955C2.46886 8.73416 2.60359 8.84606 2.75879 8.92181L3.55551 9.30452V6.86911C3.36377 6.83694 3.16723 6.84838 2.98051 6.90259C2.79379 6.9568 2.62169 7.05238 2.47698 7.18224ZM17.8548 7.18224C17.7094 7.05345 17.5373 6.95855 17.3508 6.9044C17.1642 6.85025 16.968 6.8382 16.7763 6.86911V9.30452L17.573 8.90441C17.725 8.82792 17.8568 8.71653 17.9576 8.57934C18.0583 8.44216 18.1252 8.28308 18.1526 8.11512C18.1801 7.94715 18.1675 7.77506 18.1157 7.61293C18.0639 7.45079 17.9745 7.3032 17.8548 7.18224ZM9.94323 4.62854C9.23 5.22348 9.42484 5.82537 9.81798 5.82537C9.91025 5.82537 9.99875 5.78871 10.064 5.72347C10.1292 5.65822 10.1659 5.56973 10.1659 5.47745C10.1659 5.15737 10.8617 5.05648 10.8617 4.3189C10.8617 3.38996 9.68577 3.42824 10.3886 2.84374C11.0913 2.25924 10.9104 1.65039 10.5138 1.65039C10.4215 1.65039 10.333 1.68705 10.2678 1.75229C10.2025 1.81754 10.1659 1.90603 10.1659 1.99831C10.1659 2.31839 9.47007 2.41928 9.47007 3.15686C9.47007 3.89444 10.1659 3.99882 10.1659 4.3189C10.1659 4.43371 10.1102 4.48938 9.94323 4.62854ZM7.15991 4.62854C6.44669 5.22348 6.64152 5.82537 7.03466 5.82537C7.12693 5.82537 7.21543 5.78871 7.28067 5.72347C7.34592 5.65822 7.38258 5.56973 7.38258 5.47745C7.38258 5.15737 8.07841 5.05648 8.07841 4.3189C8.07841 3.38996 6.90245 3.42824 7.60524 2.84374C8.30803 2.25924 8.12711 1.65039 7.73049 1.65039C7.63822 1.65039 7.54973 1.68705 7.48448 1.75229C7.41923 1.81754 7.38258 1.90603 7.38258 1.99831C7.38258 2.31839 6.68675 2.41928 6.68675 3.15686C6.68675 3.89444 7.38258 3.99882 7.38258 4.3189C7.38258 4.43371 7.32691 4.48938 7.15991 4.62854ZM12.7265 4.62854C12.0133 5.22348 12.2082 5.82537 12.6013 5.82537C12.6936 5.82537 12.7821 5.78871 12.8473 5.72347C12.9126 5.65822 12.9492 5.56973 12.9492 5.47745C12.9492 5.15737 13.645 5.05648 13.645 4.3189C13.645 3.38996 12.4691 3.42824 13.1719 2.84374C13.8747 2.25924 13.6938 1.65039 13.2971 1.65039C13.2049 1.65039 13.1164 1.68705 13.0511 1.75229C12.9859 1.81754 12.9492 1.90603 12.9492 1.99831C12.9492 2.31839 12.2534 2.41928 12.2534 3.15686C12.2534 3.89444 12.9492 3.99882 12.9492 4.3189C12.9492 4.43371 12.8935 4.48938 12.7265 4.62854Z" fill="white"/>
</svg>
