<svg width="21" height="20" viewBox="0 0 21 20" fill="none" xmlns="http://www.w3.org/2000/svg">
<path d="M4.56261 0.624228C4.31427 0.625782 4.07658 0.725286 3.90119 0.901113C3.72581 1.07694 3.62691 1.31488 3.62598 1.56322V17.1883C3.62598 17.7021 4.04764 18.1273 4.56261 18.1273H8.91388L7.55204 14.3749H5.18742C5.14622 14.375 5.10539 14.3671 5.06728 14.3514C5.02917 14.3357 4.99453 14.3127 4.96534 14.2836C4.93615 14.2546 4.91299 14.22 4.89718 14.1819C4.88138 14.1439 4.87325 14.1031 4.87325 14.0619V3.43767C4.87309 3.39637 4.88111 3.35544 4.89684 3.31725C4.91258 3.27906 4.93571 3.24437 4.96492 3.21516C4.99412 3.18596 5.02882 3.16282 5.06701 3.14709C5.1052 3.13135 5.14612 3.12333 5.18742 3.12349H14.5632C14.646 3.12411 14.7252 3.15753 14.7834 3.21641C14.8416 3.2753 14.8742 3.35486 14.8738 3.43767V11.2567C15.3498 11.2992 15.7656 11.5319 16.0491 11.8898C16.0727 11.8863 16.0987 11.8874 16.1246 11.8851V1.56204C16.1237 1.3137 16.0248 1.07576 15.8494 0.899931C15.674 0.724104 15.4364 0.624601 15.188 0.623047L4.56261 0.624228ZM8.93632 1.87504H10.8108C10.8534 1.87242 10.8961 1.87855 10.9363 1.89306C10.9765 1.90758 11.0133 1.93016 11.0444 1.95943C11.0755 1.9887 11.1003 2.02403 11.1173 2.06324C11.1342 2.10246 11.143 2.14473 11.143 2.18745C11.143 2.23017 11.1342 2.27244 11.1173 2.31165C11.1003 2.35087 11.0755 2.3862 11.0444 2.41546C11.0133 2.44473 10.9765 2.46732 10.9363 2.48183C10.8961 2.49634 10.8534 2.50248 10.8108 2.49986H8.93632C8.89522 2.49986 8.85451 2.49176 8.81654 2.47603C8.77856 2.4603 8.74406 2.43725 8.71499 2.40818C8.68593 2.37912 8.66288 2.34461 8.64715 2.30664C8.63142 2.26866 8.62332 2.22796 8.62332 2.18686C8.62332 2.14575 8.63142 2.10505 8.64715 2.06708C8.66288 2.0291 8.68593 1.9946 8.71499 1.96553C8.74406 1.93647 8.77856 1.91341 8.81654 1.89768C8.85451 1.88195 8.89522 1.87504 8.93632 1.87504ZM9.87531 5.00148C9.62717 5.00241 9.38941 5.10115 9.21362 5.27628C9.03782 5.45141 8.93818 5.6888 8.93632 5.93693C8.93632 6.07985 8.97175 6.2145 9.03081 6.33733C8.05047 6.54403 7.45401 7.10388 7.14101 7.66019C6.98746 7.9354 6.89415 8.20705 6.83746 8.43974H10.6123C10.8995 8.23704 11.2424 8.12822 11.5939 8.12822C11.9453 8.12822 12.2882 8.23704 12.5754 8.43974H12.912C12.8468 8.16727 12.7447 7.905 12.6084 7.66019C12.2943 7.1027 11.699 6.54403 10.7186 6.33733C10.7791 6.21249 10.8105 6.07563 10.8108 5.93693C10.8095 5.68922 10.7106 5.452 10.5354 5.27684C10.3602 5.10168 10.123 5.00272 9.87531 5.00148ZM11.5939 8.75155C11.3041 8.75249 11.0264 8.86802 10.8215 9.07293C10.6166 9.27784 10.5011 9.55549 10.5001 9.84528V13.8729L10.1151 13.2316C9.99282 13.0104 9.82249 12.8195 9.61665 12.6729C9.4991 12.5947 9.36639 12.5422 9.22719 12.5188C9.08798 12.4954 8.9454 12.5016 8.80876 12.5371C8.22882 12.693 7.85795 13.3024 8.04221 13.8954L9.33081 17.4576C9.66507 18.7037 10.9797 19.3403 10.9797 19.3403C11.0245 19.364 11.0742 19.3758 11.1249 19.3746H15.7703C15.8837 19.3746 15.9652 19.3533 16.0302 19.2872C16.0302 19.2872 17.3755 17.9797 17.3755 16.2517V13.5942C17.3742 13.3043 17.2584 13.0266 17.0533 12.8217C16.8482 12.6169 16.5705 12.5014 16.2806 12.5004C16.0969 12.5022 15.9168 12.551 15.7573 12.6422C15.688 12.4209 15.5503 12.2273 15.3639 12.0893C15.1775 11.9514 14.9522 11.8761 14.7203 11.8744C14.5355 11.8759 14.3541 11.9247 14.1935 12.0162C14.124 11.7949 13.9859 11.6015 13.7993 11.4637C13.6128 11.3259 13.3872 11.251 13.1553 11.2496C12.993 11.2509 12.8331 11.2888 12.6876 11.3607V9.84409C12.686 9.55461 12.5703 9.27744 12.3654 9.07285C12.1606 8.86826 11.8833 8.75279 11.5939 8.75155ZM6.42052 9.06455C6.34091 9.06904 6.26599 9.10364 6.21094 9.16132C6.15589 9.219 6.12483 9.29546 6.12406 9.37519C6.12406 10.0614 6.68745 10.6248 7.37369 10.6248H9.87531V9.84528C9.87531 9.56417 9.94618 9.2996 10.0667 9.06455H6.42052ZM13.121 9.06455C13.2427 9.2996 13.3124 9.56417 13.3124 9.84409V10.1902C13.5037 9.97047 13.623 9.68701 13.623 9.37519C13.6227 9.2929 13.5899 9.21407 13.5317 9.15588C13.4735 9.09769 13.3947 9.06486 13.3124 9.06455H13.121Z" fill="white"/>
</svg>
