<svg width="71" height="71" viewBox="0 0 71 71" fill="none" xmlns="http://www.w3.org/2000/svg">
<rect x="0.299805" y="0.599609" width="70.4" height="70.4" rx="35.2" fill="#E1F7E8"/>
<rect x="13.0996" y="13.4004" width="44.8" height="44.8" rx="22.4" fill="#3FBD6F"/>
<path d="M44.1484 33.0196L34.5184 42.6496C34.2934 42.8744 33.9883 43.0008 33.6702 43.0008C33.3521 43.0008 33.0469 42.8744 32.8219 42.6496L27.4504 37.2496C27.2258 37.0246 27.0996 36.7196 27.0996 36.4017C27.0996 36.0838 27.2258 35.7788 27.4504 35.5538L28.9504 34.0538C29.1753 33.8299 29.4798 33.7041 29.7972 33.7041C30.1146 33.7041 30.419 33.8299 30.6439 34.0538L33.7002 37.0178L40.9572 29.8501C41.1821 29.6259 41.4867 29.5 41.8043 29.5C42.1219 29.5 42.4265 29.6259 42.6514 29.8501L44.1477 31.3156C44.2602 31.4271 44.3495 31.5598 44.4105 31.706C44.4715 31.8522 44.5029 32.009 44.503 32.1674C44.5031 32.3258 44.4718 32.4827 44.4109 32.6289C44.3501 32.7752 44.2609 32.908 44.1484 33.0196Z" fill="white"/>
</svg>
